<?xml version="1.0" encoding="UTF-8" standalone="no"?>
<!-- Created with Inkscape (http://www.inkscape.org/) -->

<svg
   xmlns:dc="http://purl.org/dc/elements/1.1/"
   xmlns:cc="http://creativecommons.org/ns#"
   xmlns:rdf="http://www.w3.org/1999/02/22-rdf-syntax-ns#"
   xmlns:svg="http://www.w3.org/2000/svg"
   xmlns="http://www.w3.org/2000/svg"
   xmlns:sodipodi="http://sodipodi.sourceforge.net/DTD/sodipodi-0.dtd"
   xmlns:inkscape="http://www.inkscape.org/namespaces/inkscape"
   version="1.1"
   id="svg64"
   width="662"
   height="152"
   viewBox="0 0 662 152"
   sodipodi:docname="logo.svg"
   inkscape:version="0.92.4 5da689c313, 2019-01-14">
  <metadata
     id="metadata70">
    <rdf:RDF>
      <cc:Work
         rdf:about="">
        <dc:format>image/svg+xml</dc:format>
        <dc:type
           rdf:resource="http://purl.org/dc/dcmitype/StillImage" />
        <dc:title></dc:title>
      </cc:Work>
    </rdf:RDF>
  </metadata>
  <defs
     id="defs68" />
  <sodipodi:namedview
     pagecolor="#ffffff"
     bordercolor="#666666"
     borderopacity="1"
     objecttolerance="10"
     gridtolerance="10"
     guidetolerance="10"
     inkscape:pageopacity="0"
     inkscape:pageshadow="2"
     inkscape:window-width="1852"
     inkscape:window-height="685"
     id="namedview66"
     showgrid="false"
     inkscape:zoom="2.4607251"
     inkscape:cx="331"
     inkscape:cy="76"
     inkscape:window-x="200"
     inkscape:window-y="59"
     inkscape:window-maximized="0"
     inkscape:current-layer="svg64" />
  <g
     id="g3809"
     transform="matrix(4.4806584,0,0,4.0874384,-1360.1642,-143.48353)">
    <path
       style="fill:#e0a09b;stroke-width:0.12725259"
       d="m 323.12587,58.547193 c -1.32733,-0.431047 -2.25939,-0.93482 -2.20913,-1.194019 0.0548,-0.28268 1.48181,-0.986378 2.52835,-1.246809 1.67613,-0.417105 3.74079,-0.01231 5.24685,1.028692 l 0.80058,0.55337 0.64725,-0.321746 c 0.35598,-0.176959 0.83883,-0.464615 1.073,-0.639232 l 0.42576,-0.317487 -0.42576,-0.445795 c -0.23417,-0.245188 -0.82797,-0.705315 -1.31956,-1.022505 -0.93147,-0.601019 -1.1109,-0.76835 -1.00552,-0.937707 0.20007,-0.321531 1.53581,0.400016 2.6804,1.447915 l 0.59066,0.540771 0.56226,-0.616819 c 1.14585,-1.257065 2.04715,-3.242499 2.17994,-4.802088 l 0.0729,-0.856042 h -4.3 c -3.82491,0 -4.30866,-0.02243 -4.37844,-0.20303 -0.0431,-0.111667 0.002,-0.253467 0.0998,-0.315111 0.098,-0.06164 2.06832,-0.112953 4.37844,-0.114021 l 4.20023,-0.0019 -0.0751,-0.856042 c -0.0413,-0.470823 -0.19456,-1.196804 -0.34057,-1.613291 -0.27675,-0.789455 -0.26553,-1.081654 0.0415,-1.081654 0.43808,0 0.97104,2.123593 0.97363,3.879458 0.006,4.245283 -2.73017,7.929811 -6.81083,9.170587 -0.72969,0.221872 -1.19706,0.265212 -2.80908,0.260481 -1.65964,-0.0049 -2.06046,-0.04682 -2.82756,-0.295934 z m 4.84781,-0.376377 c 0.34879,-0.08049 0.63609,-0.201148 0.63842,-0.268121 0.002,-0.06697 -0.18781,-0.250329 -0.42257,-0.407458 -1.54704,-1.035493 -4.18039,-1.219141 -5.79785,-0.40434 -0.26335,0.132664 -0.47882,0.271494 -0.47882,0.308512 0,0.110896 0.8843,0.4434 1.84425,0.69345 1.04001,0.270906 3.20688,0.310968 4.21657,0.07796 z m -8.95117,-2.270602 c -0.69023,-0.718909 -1.06791,-1.283226 -1.06791,-1.595658 0,-0.176929 0.22793,-0.392854 0.73419,-0.69552 2.34586,-1.402456 4.3876,-2.044866 7.4377,-2.340182 0.8625,-0.08351 0.96169,-0.12107 0.99844,-0.378068 0.0224,-0.156941 0.11142,-0.285347 0.19773,-0.285347 0.33518,0 2.44506,1.014804 2.4831,1.194315 0.0479,0.226181 -2.20171,1.397073 -2.48023,1.290917 -0.0977,-0.03722 -0.17756,-0.191461 -0.17756,-0.342757 0,-0.25727 -0.0434,-0.269997 -0.67035,-0.196552 -2.71561,0.31813 -5.16375,1.601258 -6.36572,3.336429 -0.21008,0.303277 -0.4247,0.551412 -0.47693,0.551412 -0.0522,0 -0.32784,-0.242545 -0.61246,-0.538989 z m -2.06235,-3.170524 c -0.36398,-0.437441 -0.56023,-1.811733 -0.51137,-3.581011 0.0423,-1.532981 0.0975,-1.916581 0.40176,-2.791742 1.15841,-3.3324 4.06611,-5.831818 7.32003,-6.292208 1.38297,-0.195673 3.86609,-0.06702 4.77612,0.247457 1.00555,0.347482 1.54517,0.644657 1.49049,0.820826 -0.0879,0.283221 -1.61088,1.202276 -2.48313,1.498463 -1.76164,0.598198 -4.01677,0.330855 -5.59506,-0.663289 -0.39026,-0.24582 -0.70858,-0.360114 -0.87994,-0.315942 -0.38524,0.09931 -1.73686,1.187537 -1.73686,1.398402 0,0.215923 0.99218,0.954201 1.81473,1.350342 0.62832,0.302594 0.83905,0.575672 0.61555,0.797658 -0.1697,0.168553 -1.06882,-0.257168 -2.13395,-1.010401 -0.43394,-0.306877 -0.84493,-0.557958 -0.9133,-0.557958 -0.1395,0 -0.87337,1.064629 -1.26864,1.840438 -0.40074,0.786541 -0.79656,2.207637 -0.82968,2.978758 l -0.03,0.697515 2.2345,0.06341 c 2.12809,0.06039 2.2345,0.07549 2.2345,0.317052 0,0.243971 -0.0851,0.253642 -2.23262,0.253642 -1.94525,0 -2.2377,0.02612 -2.27211,0.20297 -0.0217,0.111634 0.0522,0.625259 0.16428,1.141389 0.3625,1.669447 0.37093,1.762754 0.15916,1.762754 -0.10593,0 -0.25196,-0.07134 -0.32451,-0.158526 z m 10.89008,-10.694674 c 0.35114,-0.12202 0.86827,-0.365059 1.14917,-0.540087 l 0.51075,-0.318232 -0.38306,-0.161526 c -1.5014,-0.633101 -4.13929,-0.714973 -5.84162,-0.181305 -0.47403,0.148606 -0.86188,0.324008 -0.86188,0.389782 0,0.166954 1.14763,0.726934 1.94906,0.951038 0.84571,0.236483 2.59761,0.166122 3.47758,-0.13967 z m 12.45043,9.58833 c -0.15169,-0.09525 -0.15819,-0.151657 -0.0319,-0.277064 0.19816,-0.196815 0.22656,-3.85465 0.0309,-3.974777 -0.39831,-0.244503 0.003,-0.321788 1.50031,-0.289136 l 1.62799,0.03549 0.0404,0.348757 c 0.0459,0.396026 -0.10426,0.437692 -0.54459,0.15113 -0.19768,-0.128651 -0.51922,-0.183981 -0.92123,-0.158526 l -0.61755,0.0391 -0.0383,0.72922 -0.0383,0.729221 h 0.62917 c 0.40142,0 0.68628,-0.06836 0.78695,-0.188835 0.24397,-0.291977 0.38422,-0.104581 0.38422,0.513372 0,0.589644 -0.11287,0.696326 -0.38816,0.36687 -0.11467,-0.137239 -0.34037,-0.184956 -0.74982,-0.158526 l -0.58577,0.03781 v 0.824336 0.824336 l 0.71742,0.03754 c 0.62157,0.03252 0.77155,-0.0077 1.12264,-0.301127 0.4534,-0.378928 0.59104,-0.343459 0.47342,0.121995 -0.1592,0.630007 -0.37317,0.712442 -1.84378,0.710348 -0.74993,-0.0011 -1.44921,-0.05576 -1.55396,-0.12154 z m 10.56432,0.03595 c -0.20305,-0.05267 -0.20604,-0.08365 -0.0319,-0.33056 0.27772,-0.393821 0.27941,-3.663993 0.002,-3.892658 -0.35347,-0.291369 -0.0548,-0.381622 1.26291,-0.381622 1.62488,0 2.25415,0.262968 2.71913,1.136319 0.76383,1.434632 -0.0126,3.074736 -1.61747,3.416583 -0.64541,0.137477 -1.89747,0.165331 -2.33465,0.05194 z m 2.74912,-0.903453 c 0.33391,-0.331652 0.4031,-0.509737 0.4504,-1.159168 0.0651,-0.893309 -0.11767,-1.432771 -0.59823,-1.766089 -0.41492,-0.287797 -0.98027,-0.430498 -1.30277,-0.328833 -0.22614,0.07129 -0.24451,0.215795 -0.24451,1.923573 v 1.846493 l 0.65029,-0.06206 c 0.50857,-0.04854 0.73627,-0.147459 1.04482,-0.453914 z m 5.35319,0.904902 c -0.13145,-0.05233 -0.12404,-0.129565 0.0356,-0.371595 0.16317,-0.247344 0.19478,-0.625339 0.16594,-1.984765 l -0.0356,-1.679234 -0.36443,-0.0414 c -0.23729,-0.02696 -0.46334,0.05088 -0.6479,0.223097 -0.34109,0.318259 -0.45605,0.234322 -0.45605,-0.332954 v -0.42604 l 1.9472,0.03501 c 1.8377,0.03304 1.94905,0.04927 1.97986,0.288651 0.018,0.139503 -0.0216,0.336977 -0.088,0.43883 -0.10413,0.15988 -0.1536,0.155547 -0.36192,-0.03171 -0.13271,-0.119292 -0.42351,-0.216894 -0.64622,-0.216894 h -0.40493 v 1.81354 c 0,1.275225 0.0471,1.86028 0.15854,1.971006 0.12627,0.125407 0.11977,0.181815 -0.0319,0.277064 -0.20098,0.126201 -0.9694,0.149186 -1.2502,0.03739 z m 3.19666,-0.01957 c -0.12755,-0.08042 -0.11814,-0.187963 0.0448,-0.512469 0.16523,-0.328967 0.19736,-0.723496 0.16143,-1.982559 -0.0295,-1.03461 -0.0994,-1.626023 -0.20446,-1.730319 -0.30888,-0.306646 -0.14839,-0.36137 1.05974,-0.36137 1.39456,0 1.85153,0.16398 2.09696,0.752484 0.21721,0.520847 0.0728,1.018615 -0.41234,1.421831 l -0.40361,0.335411 0.37781,0.542153 c 0.53486,0.767508 1.05956,1.260034 1.34234,1.260034 0.32599,0 0.49085,-0.279353 1.34716,-2.282777 0.78661,-1.840359 0.89186,-2.029136 1.1314,-2.029136 0.0857,0 0.51369,0.841774 0.95108,1.870609 0.43739,1.028835 0.90872,2.028773 1.0474,2.222084 0.32145,0.448086 0.22157,0.599683 -0.39507,0.599683 -0.73747,0 -0.89672,-0.09481 -0.81807,-0.48705 0.0372,-0.185508 0.007,-0.494227 -0.0662,-0.686044 -0.12545,-0.32696 -0.18171,-0.348758 -0.90015,-0.348758 -0.66434,0 -0.7926,0.03982 -0.96372,0.29922 -0.10857,0.16457 -0.18171,0.49272 -0.16255,0.72922 l 0.0348,0.430001 -1.08533,0.01632 c -0.59693,0.009 -1.17397,-0.0295 -1.28231,-0.08551 -0.10835,-0.05601 -0.48183,-0.504162 -0.82996,-0.995893 -0.34813,-0.491731 -0.70172,-0.921111 -0.78575,-0.954177 -0.25729,-0.101249 -0.34582,0.953346 -0.12425,1.480057 0.17067,0.405685 0.17074,0.464832 6.4e-4,0.529648 -0.27706,0.105599 -0.97367,0.086 -1.16193,-0.03269 z m 6.76642,-1.994738 c 0.10004,-0.09936 -0.29741,-1.070127 -0.43812,-1.070127 -0.11604,0 -0.48486,0.768664 -0.48486,1.010494 0,0.135055 0.79531,0.186439 0.92298,0.05963 z m -4.78196,-0.760266 c 0.337,-0.234447 0.38095,-0.829333 0.0831,-1.125139 -0.11036,-0.109609 -0.36783,-0.19929 -0.57215,-0.19929 -0.43509,0 -0.58441,0.359175 -0.44848,1.078812 0.0659,0.34903 0.14416,0.44304 0.3687,0.44304 0.15676,0 0.41272,-0.08884 0.5688,-0.197423 z m 7.44239,2.750506 c -0.1593,-0.107888 -0.1593,-0.152898 0,-0.343543 0.24574,-0.294099 0.26618,-3.636405 0.0237,-3.877236 -0.0878,-0.08719 -0.15961,-0.204182 -0.15961,-0.259983 0,-0.0558 0.61768,-0.100203 1.37262,-0.09867 1.62127,0.0033 2.26058,0.220776 2.69333,0.916238 0.77572,1.246637 0.35737,2.822484 -0.92468,3.483084 -0.46285,0.238495 -2.71948,0.373733 -3.00537,0.180111 z m 2.4052,-0.580877 c 1.05843,-0.543628 1.20265,-2.376407 0.24967,-3.172855 -0.49634,-0.41481 -1.45197,-0.461179 -1.57492,-0.07642 -0.11456,0.358489 -0.0454,2.951343 0.0857,3.211085 0.13833,0.274159 0.7438,0.292812 1.23955,0.03819 z m 2.49561,0.553163 c -0.0472,-0.07583 -0.0218,-0.201382 0.0563,-0.279007 0.18282,-0.181587 0.19613,-3.720074 0.0144,-3.831624 -0.0702,-0.04311 -0.12769,-0.160616 -0.12769,-0.261127 0,-0.137424 0.17787,-0.182747 0.71717,-0.182747 0.68895,0 0.71313,0.01123 0.61474,0.285348 -0.0563,0.15694 -0.12368,1.04779 -0.14966,1.979664 -0.0413,1.482894 -0.0191,1.725195 0.17821,1.941762 0.19391,0.212822 0.19937,0.263834 0.039,0.364581 -0.25934,0.162925 -1.23828,0.150638 -1.3425,-0.01685 z m 2.33654,0.05033 c -0.20305,-0.05267 -0.20604,-0.08365 -0.0319,-0.33056 0.14761,-0.209322 0.19213,-0.662337 0.19213,-1.955236 0,-1.545442 -0.0208,-1.695718 -0.25537,-1.841192 -0.42073,-0.260969 -0.30896,-0.477852 0.24625,-0.477852 0.58058,0 0.55784,-0.01953 1.95263,1.677123 l 1.0571,1.285888 0.0416,-0.424371 c 0.0604,-0.616794 -0.0375,-2.058303 -0.15744,-2.316703 -0.0887,-0.191125 -0.0331,-0.221937 0.40013,-0.221937 0.63153,0 0.69212,0.06241 0.47038,0.484544 -0.12921,0.245975 -0.17871,0.856271 -0.17928,2.210402 -6.3e-4,1.552193 -0.0324,1.870609 -0.18657,1.870609 -0.10219,0 -0.74726,-0.680208 -1.43348,-1.511573 -0.68623,-0.831365 -1.29213,-1.484295 -1.34644,-1.450956 -0.1878,0.11528 -0.10493,2.373058 0.0968,2.637998 0.28559,0.375025 -0.13786,0.552813 -0.86653,0.363816 z m 5.83219,-0.152959 c -1.35473,-0.611121 -1.73373,-2.351989 -0.78012,-3.583314 0.71181,-0.919093 1.42827,-1.130508 3.01908,-0.890872 0.53774,0.081 0.57474,0.113097 0.67309,0.583936 0.15134,0.724458 -0.0784,0.883362 -0.51581,0.35678 -0.47079,-0.566766 -1.08661,-0.729546 -1.66919,-0.441218 -0.63801,0.315763 -0.9419,0.794603 -1.00171,1.578388 -0.10005,1.311079 0.85358,2.427891 1.86184,2.180429 0.45786,-0.112374 0.4665,-0.126155 0.50532,-0.806114 0.0219,-0.382654 -0.0305,-0.821771 -0.11723,-0.982671 -0.20874,-0.387394 -0.0785,-0.485184 0.61078,-0.458688 0.68629,0.02638 0.74309,0.06695 0.56263,0.401862 -0.0759,0.140892 -0.13891,0.588068 -0.13999,0.993725 -10e-4,0.405656 -0.0453,0.805324 -0.0984,0.88815 -0.29569,0.461873 -2.04525,0.569846 -2.91033,0.179607 z m -38.85756,-0.171673 c -0.0598,-0.156941 -0.38183,-1.055785 -0.7157,-1.99743 -0.33388,-0.941646 -0.6859,-1.802319 -0.78227,-1.912607 -0.24696,-0.282644 -0.0988,-0.370171 0.62659,-0.370171 0.61626,0 0.62904,0.0077 0.54741,0.330749 -0.11143,0.44096 0.67377,2.809821 0.856,2.582461 0.0263,-0.03286 0.1733,-0.39348 0.3266,-0.801386 l 0.27872,-0.741648 -0.28122,-0.589972 c -0.15467,-0.324485 -0.3033,-0.632774 -0.33029,-0.685088 -0.027,-0.05231 0.27796,-0.09512 0.67767,-0.09512 0.72374,0 0.7264,0.0014 0.64121,0.338531 -0.0889,0.351812 0.62631,2.578351 0.82822,2.578351 0.0554,0 0.27641,-0.520579 0.49125,-1.156842 0.2852,-0.844587 0.3572,-1.218884 0.26678,-1.386693 -0.18822,-0.349314 -0.16331,-0.373347 0.3869,-0.373347 0.51427,0 0.66121,0.180278 0.37703,0.462541 -0.0735,0.07304 -0.44057,1.011836 -0.81561,2.086205 -0.43808,1.254924 -0.75129,1.967251 -0.87595,1.992141 -0.18653,0.03724 -0.29121,-0.178477 -0.865,-1.782531 -0.0936,-0.261568 -0.20817,-0.475578 -0.25468,-0.475578 -0.0465,0 -0.26954,0.513624 -0.49563,1.141388 -0.42097,1.168869 -0.67548,1.414217 -0.88803,0.856042 z m 9.90739,-0.944891 c -0.15116,-0.0389 -0.21731,-0.154274 -0.19153,-0.334046 0.0353,-0.246241 0.12864,-0.278499 0.90302,-0.312159 0.71539,-0.0311 0.87785,-7.36e-4 0.94647,0.176865 0.16725,0.432884 -0.76936,0.698021 -1.65796,0.46934 z m -32.61756,-2.244984 c -1.30216,-0.45878 -1.36803,-0.496971 -1.27451,-0.739015 0.0699,-0.18093 2.16353,-1.492707 2.38239,-1.492707 0.0734,0 0.16957,0.142673 0.21364,0.317052 0.1069,0.423059 0.31949,0.408485 1.95155,-0.133785 2.39001,-0.79411 3.88161,-1.843186 4.74225,-3.33532 0.24485,-0.42452 0.51829,-0.773551 0.60765,-0.775625 0.42926,-0.01 2.04009,1.848283 1.90509,2.197705 -0.099,0.256328 -2.22923,1.645501 -3.31674,2.162952 -1.35421,0.644356 -2.75823,1.077766 -4.25566,1.313693 -1.03889,0.163682 -1.32634,0.252664 -1.32634,0.410584 0,0.197811 -0.23832,0.513224 -0.37667,0.49852 -0.0386,-0.0041 -0.60232,-0.19493 -1.25265,-0.424054 z"
       id="path3793"
       inkscape:connector-curvature="0" />
    <path
       style="fill:#8d9ab4;stroke-width:0.12725259"
       d="m 323.44509,58.64682 c -0.38625,-0.10191 -1.12321,-0.382745 -1.63769,-0.624079 -1.16043,-0.544346 -1.16335,-0.727894 -0.0206,-1.297174 2.32413,-1.157827 4.85479,-1.007753 6.90517,0.40949 l 0.80058,0.55337 0.64725,-0.321746 c 0.35598,-0.176959 0.83918,-0.46488 1.07378,-0.63982 l 0.42653,-0.318076 -0.51815,-0.523781 c -0.28499,-0.288079 -0.89076,-0.752057 -1.34615,-1.031063 -0.88721,-0.543566 -1.08788,-0.786566 -0.75448,-0.913637 0.29799,-0.113573 1.18023,0.387014 2.24065,1.271352 l 0.91394,0.762183 0.55368,-0.607418 c 1.13727,-1.247641 2.03901,-3.23797 2.17138,-4.792687 l 0.0729,-0.856042 h -4.28846 c -2.84122,0 -4.31625,-0.04467 -4.37082,-0.132376 -0.0453,-0.07281 -0.0129,-0.215481 0.0719,-0.317052 0.1294,-0.154865 0.83496,-0.184676 4.37082,-0.184676 h 4.21652 l -0.0759,-0.856042 c -0.0418,-0.470823 -0.20058,-1.217341 -0.35295,-1.65893 -0.19785,-0.573405 -0.23773,-0.841918 -0.13954,-0.939441 0.46997,-0.466796 1.05199,1.273153 1.13755,3.400751 0.0716,1.780253 -0.17979,3.040874 -0.9085,4.555806 -1.17132,2.435106 -3.56581,4.411627 -6.14072,5.068831 -1.00378,0.256196 -4.06612,0.251499 -5.04868,-0.0077 z m 4.52859,-0.476004 c 0.34879,-0.08049 0.63609,-0.201148 0.63842,-0.268121 0.002,-0.06697 -0.18781,-0.250329 -0.42257,-0.407458 -1.54907,-1.036847 -4.18038,-1.219175 -5.80236,-0.402055 -0.26583,0.133922 -0.45198,0.293886 -0.41365,0.355476 0.074,0.11896 1.82805,0.716155 2.36537,0.805336 0.66828,0.110919 3.02768,0.05693 3.63479,-0.08318 z m -9.03031,-2.345782 c -0.59765,-0.634617 -0.98877,-1.263441 -0.98877,-1.589718 0,-0.37671 2.3978,-1.632623 4.22333,-2.212084 1.31424,-0.417165 2.28345,-0.599561 3.86036,-0.726482 0.90052,-0.07248 1.00847,-0.109861 1.11409,-0.385784 0.0643,-0.16804 0.16147,-0.306384 0.21588,-0.307433 0.2822,-0.0054 2.46111,1.078176 2.46111,1.223958 0,0.21367 -2.26258,1.355134 -2.50384,1.26318 -0.0977,-0.03722 -0.17756,-0.191461 -0.17756,-0.342757 0,-0.257349 -0.0434,-0.270021 -0.67255,-0.196572 -2.7631,0.322549 -5.13724,1.57041 -6.37144,3.348872 -0.20573,0.296444 -0.42088,0.538989 -0.47813,0.538989 -0.0572,0 -0.36436,-0.276376 -0.68248,-0.614169 z m -1.98803,-3.151048 c -0.59743,-1.117741 -0.73854,-4.063487 -0.27434,-5.727254 0.75449,-2.704257 2.59807,-4.937778 5.04033,-6.106452 1.54898,-0.741223 1.93122,-0.814337 4.27747,-0.818208 2.15334,-0.0036 2.39623,0.03518 3.73481,0.595504 0.83877,0.351111 0.8038,0.60881 -0.16722,1.232157 -2.20614,1.416243 -5.07225,1.463347 -7.20739,0.118453 -0.39026,-0.24582 -0.70858,-0.360114 -0.87994,-0.315942 -0.39047,0.100657 -1.73686,1.188872 -1.73686,1.403814 0,0.17894 0.72042,0.721506 1.95898,1.475364 0.50781,0.309079 0.5911,0.408847 0.46616,0.558374 -0.132,0.157968 -0.2138,0.156678 -0.61828,-0.0097 -0.25639,-0.105491 -0.77487,-0.403506 -1.15219,-0.662257 -1.35609,-0.929966 -1.25424,-0.900176 -1.60842,-0.470455 -0.85922,1.042489 -1.70589,3.206408 -1.76154,4.502144 l -0.03,0.697515 2.23294,0.06341 c 1.97714,0.05615 2.23775,0.08832 2.27491,0.280816 0.0644,0.333535 -0.43485,0.39642 -2.5546,0.321796 -1.50662,-0.05304 -1.92185,-0.03211 -1.97267,0.09942 -0.0354,0.09163 0.0328,0.641725 0.15154,1.222431 0.11874,0.580705 0.22378,1.192931 0.23342,1.360501 0.0216,0.375545 -0.24045,0.490499 -0.40716,0.178612 z m 10.9956,-10.675954 c 0.40653,-0.142876 0.91645,-0.385174 1.13316,-0.538443 l 0.39402,-0.278669 -0.30319,-0.156062 c -0.71816,-0.369652 -2.2885,-0.597555 -3.66854,-0.532416 -1.44906,0.0684 -3.14092,0.491613 -3.04987,0.762918 0.0687,0.204808 1.18335,0.741692 1.94621,0.937439 0.87909,0.225572 2.62489,0.129742 3.54821,-0.194767 z m 12.59624,9.650733 c -0.15173,-0.02902 -0.18374,-0.432244 -0.18374,-2.314729 v -2.279584 h 1.50432 c 1.57317,0 1.77003,0.07317 1.5725,0.584434 -0.0721,0.186578 -0.10637,0.186029 -0.40212,-0.0064 -0.22251,-0.144806 -0.53065,-0.198518 -0.98827,-0.172266 l -0.66494,0.03815 -0.0383,0.730754 c -0.0312,0.593854 0.002,0.746284 0.17915,0.813649 0.20166,0.07686 0.8319,-0.04939 1.35949,-0.272322 0.19423,-0.08207 0.22345,-0.01802 0.22345,0.489844 0,0.609356 -0.11069,0.719984 -0.38816,0.387923 -0.11467,-0.137239 -0.34037,-0.184956 -0.74982,-0.158526 l -0.58577,0.03781 v 0.824336 0.824336 l 0.71742,0.03754 c 0.62157,0.03252 0.77155,-0.0077 1.12264,-0.301127 0.22287,-0.186266 0.43725,-0.306853 0.4764,-0.267971 0.11546,0.11468 -0.2158,0.974628 -0.37916,0.984284 -0.57132,0.03377 -2.62552,0.04851 -2.77505,0.01991 z m 10.43672,0.0037 c -0.16864,-0.03958 -0.20384,-0.112771 -0.12768,-0.265491 0.13942,-0.279607 0.13573,-3.826607 -0.004,-4.110589 -0.10066,-0.204143 -0.002,-0.221936 1.22485,-0.221936 1.14665,0 1.41246,0.04107 1.89029,0.292035 0.97721,0.51326 1.42147,1.846758 0.97156,2.916248 -0.23222,0.552015 -1.00363,1.203567 -1.5166,1.280961 -0.66774,0.100745 -2.18411,0.168394 -2.43813,0.108772 z m 2.63021,-0.89663 c 0.33391,-0.331652 0.4031,-0.509737 0.4504,-1.159167 0.0923,-1.266999 -0.37424,-1.933134 -1.47642,-2.108186 -0.70931,-0.112656 -0.79678,0.09519 -0.79678,1.893444 0,1.889462 0.005,1.901566 0.79717,1.825992 0.488,-0.04657 0.72055,-0.149079 1.02563,-0.452083 z m -7.81132,0.578821 c -0.0598,-0.156941 -0.38151,-1.055785 -0.715,-1.99743 -0.33348,-0.941646 -0.65665,-1.766299 -0.71814,-1.832563 -0.28743,-0.30976 -0.10822,-0.463884 0.49471,-0.425458 0.55745,0.03553 0.60373,0.06354 0.57211,0.346339 -0.0189,0.169228 0.0319,0.511644 0.1129,0.760926 0.34256,1.054083 0.64919,1.78486 0.74891,1.78486 0.0587,0 0.22771,-0.355642 0.3755,-0.790316 l 0.26872,-0.790317 -0.30073,-0.603547 c -0.1654,-0.33195 -0.27147,-0.632606 -0.23571,-0.668124 0.0358,-0.03552 0.34896,-0.06458 0.696,-0.06458 0.61998,0 0.6295,0.0059 0.54545,0.338531 -0.0889,0.351812 0.62631,2.578351 0.82822,2.578351 0.0554,0 0.27641,-0.520579 0.49125,-1.156842 0.2769,-0.82002 0.35588,-1.221338 0.27128,-1.378356 -0.0656,-0.121832 -0.0831,-0.257551 -0.0387,-0.301598 0.10098,-0.100293 0.73603,-0.105506 0.83535,-0.0069 0.0405,0.04028 -0.0569,0.368424 -0.21661,0.729221 -0.15968,0.360796 -0.51367,1.333661 -0.78663,2.161921 -0.27297,0.82826 -0.57394,1.535677 -0.66881,1.572037 -0.22379,0.08577 -0.32316,-0.08498 -0.73957,-1.270766 -0.18983,-0.540575 -0.38485,-0.982863 -0.43339,-0.982863 -0.0485,0 -0.17674,0.242545 -0.28492,0.538989 -0.10818,0.296444 -0.29616,0.810069 -0.41775,1.141389 -0.23805,0.64869 -0.51013,0.77473 -0.68441,0.317052 z m 13.49916,-1.814841 c 0.029,-1.396419 -0.004,-2.027072 -0.1114,-2.156131 -0.1285,-0.153782 -0.0676,-0.182415 0.38762,-0.182415 0.47088,0 0.52602,0.02842 0.43061,0.221937 -0.0602,0.122065 -0.10942,1.092281 -0.10942,2.156035 v 1.934099 l -0.31922,9.6e-5 -0.31921,9.5e-5 z m 3.15112,-0.182589 v -2.155957 h 0.41498 c 0.40284,0 0.54639,0.158008 0.28777,0.316761 -0.0779,0.0478 -0.11502,0.837793 -0.0958,2.03662 l 0.0314,1.958532 h -0.31922 -0.31921 z m 1.86209,1.114624 -0.78213,-1.041331 0.35382,-0.177061 c 0.1946,-0.09738 0.42564,-0.267456 0.51343,-0.377938 0.24817,-0.312349 0.19046,-0.927769 -0.11755,-1.253409 -0.35174,-0.371872 -0.22803,-0.501856 0.27908,-0.293228 0.47661,0.196083 0.80046,0.762666 0.68871,1.204918 -0.076,0.300739 -0.51899,0.745459 -0.85257,0.8559 -0.15593,0.05162 0.51865,1.20453 0.87819,1.500903 0.10532,0.08681 0.24783,0.262409 0.31669,0.390211 0.10543,0.195653 0.0762,0.232367 -0.18516,0.232367 -0.24001,0 -0.4877,-0.236092 -1.09251,-1.041332 z m 2.41622,0.946216 c 5.1e-4,-0.05231 0.10389,-0.250318 0.22984,-0.440009 l 0.22899,-0.344893 v 0.440009 c 0,0.339165 -0.0527,0.440009 -0.22984,0.440009 -0.1264,0 -0.22945,-0.0428 -0.22899,-0.09512 z m 3.06362,-0.164824 c 0,-0.313925 -0.35671,-1.036027 -0.5748,-1.163598 -0.0864,-0.05055 -0.13637,-0.221763 -0.111,-0.380463 0.0513,-0.320655 -0.45545,-1.429934 -0.65319,-1.429934 -0.0693,0 -0.25263,0.256813 -0.40744,0.570695 -0.35958,0.729065 -0.37638,0.560492 -0.0292,-0.293542 0.14701,-0.361689 0.32021,-0.790504 0.38489,-0.952924 0.0647,-0.16242 0.18347,-0.273499 0.26399,-0.246841 0.10965,0.0363 1.89291,3.91731 1.89291,4.119646 0,0.0203 -0.17237,0.0369 -0.38306,0.0369 -0.30102,0 -0.38305,-0.05566 -0.38305,-0.25994 z m 2.10681,-1.896016 v -2.155957 h 0.41498 c 0.40315,0 0.54635,0.158033 0.28729,0.317053 -0.17073,0.104805 -0.16675,3.431756 0.005,3.749555 0.11821,0.219387 0.0879,0.245305 -0.2873,0.245305 h -0.41947 z m 4.97974,-0.0054 v -2.161282 l 0.29233,0.03707 c 0.29029,0.03681 0.29251,0.05184 0.31921,2.161399 l 0.0269,2.12433 -0.31921,-7.9e-5 -0.31922,-7.8e-5 v -2.161321 z m 2.2345,1.915163 c 0,-0.135386 0.0575,-0.281428 0.12769,-0.324537 0.0702,-0.04311 0.12769,-0.02261 0.12769,0.04555 0,0.06816 0.0349,0.214205 0.0775,0.324537 0.0509,0.131638 0.007,0.200604 -0.12769,0.200604 -0.11798,0 -0.20519,-0.104615 -0.20519,-0.246158 z m 5.39356,-0.0068 c -1.4143,-0.85647 -1.27928,-3.096295 0.23348,-3.87328 0.55162,-0.283317 0.59047,-0.225312 0.1517,0.226492 -0.49319,0.507851 -0.67131,0.956963 -0.67131,1.692706 0,0.682723 0.27732,1.385824 0.73294,1.85828 0.40437,0.419314 0.17029,0.469503 -0.44681,0.0958 z m 2.26078,0.07086 c 0.0943,-0.112898 0.14038,-0.534571 0.12115,-1.109683 -0.0307,-0.919867 -0.0282,-0.927926 0.31039,-0.967721 l 0.34138,-0.04013 v 0.950522 c 0,1.019997 -0.16178,1.349103 -0.66318,1.349103 -0.21311,0 -0.23355,-0.03392 -0.10974,-0.182091 z m -12.38875,-0.354028 c 0.51601,-0.501073 0.64853,-0.827417 0.64827,-1.596388 -2.5e-4,-0.742617 -0.32149,-1.393784 -0.86569,-1.754759 -0.52243,-0.34653 -0.38197,-0.456194 0.29164,-0.227704 1.2342,0.418645 1.68966,1.977972 0.93426,3.198593 -0.26496,0.428145 -0.81785,0.789556 -1.20786,0.789556 -0.16984,0 -0.12291,-0.09633 0.19938,-0.409298 z m 6.58066,-1.080848 c -0.67828,-0.819581 -1.30926,-1.50775 -1.40219,-1.529265 -0.0932,-0.02157 -0.19222,0.09218 -0.22081,0.253642 -0.033,0.186449 -0.0891,0.04995 -0.15438,-0.375896 -0.0564,-0.367761 -0.15241,-0.699279 -0.21338,-0.736705 -0.21218,-0.130244 -0.10896,-0.306722 0.17939,-0.306722 0.21603,0 0.61122,0.389184 1.54536,1.521852 0.80144,0.97177 1.34266,1.521851 1.49735,1.521851 0.20198,0 0.24224,0.09485 0.24224,0.570695 0,0.313881 -0.0541,0.570694 -0.12018,0.570694 -0.0661,0 -0.67513,-0.670566 -1.3534,-1.490146 z m -25.27157,0.431483 c -0.14596,-0.106007 -0.20686,-0.253539 -0.15744,-0.381439 0.11442,-0.296157 1.71936,-0.304749 1.83331,-0.0098 0.11068,0.286468 -0.0646,0.393386 -0.79325,0.483981 -0.4519,0.05618 -0.71576,0.02846 -0.88262,-0.09273 z m 11.67824,-0.248718 c 0,-0.0913 0.0789,-0.273173 0.17535,-0.404171 0.16856,-0.228959 0.17897,-0.226829 0.26903,0.055 0.062,0.194061 0.0351,0.330051 -0.0796,0.402229 -0.24687,0.155365 -0.3648,0.138211 -0.3648,-0.05306 z m -44.29844,-2.098055 c -0.52203,-0.191704 -0.969,-0.407715 -0.99327,-0.480024 -0.0603,-0.179792 1.86656,-1.345914 2.08587,-1.262327 0.0967,0.03684 0.17576,0.149628 0.17576,0.250631 0,0.289078 0.25683,0.305814 1.14917,0.07489 2.76587,-0.715781 4.93172,-2.111108 5.76277,-3.712617 0.39408,-0.759427 0.56997,-0.741195 1.40966,0.146112 0.40925,0.432448 0.74408,0.89994 0.74408,1.038872 0,0.178426 -0.34477,0.47746 -1.17409,1.018332 -2.03249,1.325564 -3.93727,2.099076 -5.9254,2.406242 -1.63685,0.252893 -1.77047,0.297331 -1.81547,0.603776 -0.0524,0.35709 -0.25009,0.345406 -1.41908,-0.08388 z M 387.1162,47.71023 c -0.27734,-0.304384 -0.26663,-0.402182 0.044,-0.402182 0.18728,0 0.25538,0.08455 0.25538,0.317053 0,0.378778 -0.0253,0.385973 -0.29943,0.08513 z m -4.85404,-0.109714 c -0.1526,-0.151571 -0.0824,-0.419289 0.10988,-0.419289 0.10534,0 0.19153,0.08224 0.19153,0.182747 0,0.211873 -0.18224,0.354897 -0.30141,0.236542 z m -24.43849,-0.197352 c 0.0288,-0.08719 0.22035,-0.174086 0.42562,-0.193103 0.356,-0.03298 0.36178,-0.02567 0.12535,0.158526 -0.29956,0.233392 -0.62342,0.253716 -0.55097,0.03458 z m 3.08965,-0.02767 c -0.2374,-0.178348 -0.23305,-0.186368 0.10329,-0.190231 0.2288,-0.0026 0.35113,0.06224 0.35113,0.186198 0,0.240057 -0.1386,0.241288 -0.45442,0.004 z"
       id="path3791"
       inkscape:connector-curvature="0" />
    <path
       style="fill:#7787a6;stroke-width:0.12725259"
       d="m 323.98843,58.649787 c -0.92195,-0.200662 -2.63062,-0.88001 -2.8382,-1.128432 -0.33991,-0.406794 1.74865,-1.303713 3.30144,-1.417787 1.55901,-0.114531 3.12024,0.354486 4.51111,1.355202 0.48664,0.350132 0.53141,0.358998 0.94534,0.187218 0.68153,-0.282831 1.83654,-1.086513 1.83654,-1.277904 0,-0.208336 -1.30645,-1.308621 -2.10736,-1.774807 -0.5615,-0.326829 -0.73492,-0.563672 -0.41273,-0.563672 0.21424,0 1.39927,0.792929 2.22631,1.489669 0.4668,0.393258 0.72009,0.528028 0.85326,0.454008 0.37845,-0.210358 1.4905,-1.724331 1.92382,-2.619134 0.46011,-0.950133 0.78745,-2.142583 0.85899,-3.129172 l 0.0414,-0.570694 -4.30939,-0.03339 c -3.71324,-0.02877 -4.3094,-0.05948 -4.3094,-0.221937 0,-0.163013 0.56712,-0.188544 4.18809,-0.188544 2.69174,0 4.23489,-0.04648 4.31906,-0.130079 0.17133,-0.170166 -0.0188,-1.601263 -0.33661,-2.533161 -0.27759,-0.814085 -0.11776,-1.20186 0.19194,-0.465665 0.72694,1.728028 0.76873,4.411042 0.0986,6.332556 -0.21312,0.611108 -0.58085,1.431038 -0.81718,1.822066 -0.93456,1.546293 -2.7852,3.169043 -4.39757,3.856057 -1.67245,0.712618 -4.0148,0.939077 -5.76748,0.557604 z m 4.40448,-0.429588 c 0.22823,-0.08642 0.41498,-0.232262 0.41498,-0.324083 0,-0.223256 -1.10361,-0.886561 -1.94231,-1.167397 -0.49295,-0.165062 -1.05445,-0.224192 -2.07979,-0.219018 -1.1999,0.0061 -1.51614,0.05338 -2.17041,0.324772 -0.42122,0.174727 -0.78306,0.406359 -0.80407,0.51474 -0.042,0.216467 0.92626,0.660094 2.06787,0.947467 0.8058,0.202837 3.91522,0.150151 4.51373,-0.07648 z m -9.55835,-2.700448 c -0.82533,-1.035806 -0.87677,-1.212514 -0.45107,-1.549652 0.66142,-0.523825 2.31772,-1.321828 3.66178,-1.764231 1.31394,-0.432494 2.31374,-0.624798 4.2089,-0.809555 0.86227,-0.08406 0.96171,-0.121777 0.99845,-0.378706 0.0224,-0.156941 0.0604,-0.285347 0.0845,-0.285347 0.11287,0 2.18581,0.915922 2.27869,1.006833 0.13214,0.129346 -2.03948,1.31869 -2.21315,1.212086 -0.0698,-0.04286 -0.12695,-0.188703 -0.12695,-0.32409 0,-0.346591 -0.67055,-0.326325 -2.23368,0.06751 -1.82167,0.458974 -3.23372,1.180556 -4.2124,2.152609 -0.44253,0.439532 -0.84337,0.920469 -0.89075,1.068751 -0.14517,0.454295 -0.53925,0.312901 -1.10427,-0.396208 z m -1.95094,-3.360755 c -1.0227,-3.116172 -0.1547,-6.740404 2.20162,-9.192651 2.31761,-2.411959 5.43172,-3.439158 8.59416,-2.834814 1.03076,0.196978 2.35538,0.652619 2.48014,0.853114 0.24522,0.39409 -1.52204,1.395937 -3.01157,1.707239 -1.56906,0.327921 -3.48506,-0.0105 -4.72437,-0.834454 -0.31602,-0.210107 -0.66389,-0.382258 -0.77304,-0.382557 -0.25809,-7.1e-4 -1.21566,0.609071 -1.76832,1.126056 l -0.43454,0.406496 0.41041,0.420564 c 0.22572,0.23131 0.80778,0.642534 1.29346,0.91383 0.48569,0.271297 0.88439,0.563191 0.88602,0.648654 0.002,0.113827 -0.0832,0.12285 -0.3192,0.03373 -0.40249,-0.151988 -1.65924,-0.943657 -2.16435,-1.363398 l -0.37969,-0.315514 -0.42818,0.491254 c -0.6633,0.760992 -1.5232,2.627533 -1.75632,3.812315 -0.34157,1.735974 -0.49167,1.614275 2.08245,1.688367 2.8806,0.08291 2.97051,0.31492 0.12508,0.322771 -1.14,0.0031 -2.14456,0.01741 -2.23234,0.03171 -0.26618,0.04334 -0.20925,0.547889 0.31412,2.784342 0.12728,0.543854 -0.19877,0.282508 -0.39554,-0.317052 z m 10.45654,-9.842164 c 0.73051,-0.19324 1.66993,-0.598013 2.03749,-0.877906 0.69945,-0.532619 -1.03087,-1.044689 -3.50654,-1.037724 -1.49658,0.0042 -1.84155,0.046 -2.61755,0.317053 -1.15656,0.403983 -1.20573,0.616866 -0.24978,1.081401 1.36188,0.661791 3.03524,0.861364 4.33638,0.517176 z m 13.27865,7.020398 v -2.155957 h 0.32339 c 0.32012,0 0.32288,0.009 0.27281,0.88912 -0.0319,0.560357 0.004,0.954778 0.0978,1.066688 0.10156,0.12155 0.10613,0.203494 0.0145,0.259753 -0.18686,0.114709 -0.17054,1.755567 0.0193,1.944167 0.11917,0.118366 0.0553,0.152185 -0.28729,0.152185 h -0.44052 z m 2.42084,1.906891 c 0.4095,-0.268107 0.52633,-0.252828 0.40803,0.05336 -0.0432,0.111816 -0.22784,0.195343 -0.43075,0.194865 l -0.35515,-8.37e-4 0.37787,-0.247393 z m 2.94717,0.130608 c -0.0903,-0.14512 -1.47359,-4.009617 -1.47359,-4.11677 0,-0.04218 0.17237,-0.07669 0.38305,-0.07669 0.31519,0 0.38306,0.05196 0.38306,0.293263 0,0.358812 0.7045,2.46048 0.90535,2.700854 0.0798,0.09549 0.2044,0.137196 0.27691,0.09269 0.13875,-0.08517 0.0702,0.304568 -0.15863,0.902465 -0.13277,0.346836 -0.20027,0.39043 -0.31615,0.204188 z m 2.03948,-0.340904 c -0.10629,-0.252649 -0.19324,-0.478786 -0.19324,-0.502527 0,-0.02374 -0.11905,-0.359188 -0.26455,-0.745438 -0.16345,-0.433904 -0.33966,-0.702272 -0.46111,-0.702272 -0.15299,0 -0.17914,-0.09224 -0.11798,-0.416032 0.0547,-0.289489 7.6e-4,-0.567666 -0.17732,-0.914562 -0.14075,-0.274191 -0.2559,-0.514998 -0.2559,-0.535125 0,-0.02013 0.2011,-0.0366 0.4469,-0.0366 0.37878,0 0.44667,0.0435 0.44538,0.285347 -0.003,0.554058 0.81016,2.666328 1.05043,2.728734 0.12537,0.03256 0.22795,0.139986 0.22795,0.238718 0,0.22429 -0.34578,1.059114 -0.43867,1.059114 -0.0378,0 -0.15561,-0.206713 -0.26189,-0.459361 z m 3.06274,-1.696595 v -2.155957 h 0.48177 c 0.4798,0 0.48094,0.0012 0.28004,0.305786 -0.16357,0.247936 -0.19394,0.613824 -0.16054,1.93402 0.0226,0.895528 0.0895,1.728105 0.14859,1.85017 0.0912,0.188481 0.0428,0.221937 -0.32122,0.221937 h -0.42864 z m 2.31655,1.816907 c 0.64369,-0.575044 0.82999,-0.967745 0.82999,-1.74954 0,-0.832582 -0.28274,-1.403379 -0.88146,-1.77945 -0.52247,-0.328182 -0.52191,-0.485744 10e-4,-0.380793 0.86026,0.172544 1.4565,0.830384 1.58077,1.744102 0.15375,1.130409 -0.53907,2.222377 -1.54884,2.441154 l -0.38306,0.08299 0.40126,-0.358466 z m 5.89636,-1.634318 c 0.029,-1.396419 -0.004,-2.027072 -0.1114,-2.156131 -0.1285,-0.153782 -0.0676,-0.182415 0.38762,-0.182415 0.47088,0 0.52602,0.02842 0.43061,0.221937 -0.0602,0.122065 -0.10942,1.092281 -0.10942,2.156035 v 1.934099 l -0.31922,9.6e-5 -0.31921,9.5e-5 z m 3.15112,-0.182589 v -2.155957 h 0.41498 c 0.40284,0 0.54639,0.158008 0.28777,0.316761 -0.0779,0.0478 -0.11502,0.837793 -0.0958,2.03662 l 0.0314,1.958532 h -0.31922 -0.31921 z m 1.86209,1.114624 -0.78213,-1.041331 0.35382,-0.177061 c 0.1946,-0.09738 0.42564,-0.267456 0.51343,-0.377938 0.24817,-0.312349 0.19046,-0.927769 -0.11755,-1.253409 -0.35174,-0.371872 -0.22803,-0.501856 0.27908,-0.293228 0.47661,0.196083 0.80046,0.762666 0.68871,1.204918 -0.076,0.300739 -0.51899,0.745459 -0.85257,0.8559 -0.15593,0.05162 0.51865,1.20453 0.87819,1.500903 0.10532,0.08681 0.24783,0.262409 0.31669,0.390211 0.10543,0.195653 0.0762,0.232367 -0.18516,0.232367 -0.24001,0 -0.4877,-0.236092 -1.09251,-1.041332 z m 2.41622,0.946216 c 5.1e-4,-0.05231 0.10389,-0.250318 0.22984,-0.440009 l 0.22899,-0.344893 v 0.440009 c 0,0.339165 -0.0527,0.440009 -0.22984,0.440009 -0.1264,0 -0.22945,-0.0428 -0.22899,-0.09512 z m 3.06362,-0.164824 c 0,-0.313925 -0.35671,-1.036027 -0.5748,-1.163598 -0.0864,-0.05055 -0.13637,-0.221763 -0.111,-0.380463 0.0513,-0.320655 -0.45545,-1.429934 -0.65319,-1.429934 -0.0693,0 -0.25263,0.256813 -0.40744,0.570695 -0.35958,0.729065 -0.37638,0.560492 -0.0292,-0.293542 0.14701,-0.361689 0.32021,-0.790504 0.38489,-0.952924 0.0647,-0.16242 0.18347,-0.273499 0.26399,-0.246841 0.10965,0.0363 1.89291,3.91731 1.89291,4.119646 0,0.0203 -0.17237,0.0369 -0.38306,0.0369 -0.30102,0 -0.38305,-0.05566 -0.38305,-0.25994 z m 2.10681,-1.896016 v -2.155957 h 0.41498 c 0.40315,0 0.54635,0.158033 0.28729,0.317053 -0.17073,0.104805 -0.16675,3.431756 0.005,3.749555 0.11821,0.219387 0.0879,0.245305 -0.2873,0.245305 h -0.41947 z m 4.97974,-0.0054 v -2.161286 l 0.29233,0.03707 c 0.29029,0.03681 0.29251,0.05184 0.31921,2.161399 l 0.0269,2.12433 -0.31921,-7.9e-5 -0.31922,-7.8e-5 v -2.161321 z m 2.2345,1.915163 c 0,-0.135386 0.0575,-0.281428 0.12769,-0.324537 0.0702,-0.04311 0.12769,-0.02261 0.12769,0.04555 0,0.06816 0.0349,0.214205 0.0775,0.324537 0.0509,0.131638 0.007,0.200604 -0.12769,0.200604 -0.11798,0 -0.20519,-0.104615 -0.20519,-0.246158 z m 5.39356,-0.0068 c -1.4143,-0.85647 -1.27928,-3.096295 0.23348,-3.87328 0.55162,-0.283317 0.59047,-0.225312 0.1517,0.226492 -0.49319,0.507851 -0.67131,0.956963 -0.67131,1.692706 0,0.682723 0.27732,1.385824 0.73294,1.85828 0.40437,0.419314 0.17029,0.469503 -0.44681,0.0958 z m 2.26078,0.07086 c 0.0943,-0.112898 0.14038,-0.534571 0.12115,-1.109683 -0.0307,-0.919867 -0.0282,-0.927926 0.31039,-0.967721 l 0.34138,-0.04013 v 0.950522 c 0,1.019997 -0.16178,1.349103 -0.66318,1.349103 -0.21311,0 -0.23355,-0.03392 -0.10974,-0.182091 z m -12.38875,-0.354028 c 0.51601,-0.501073 0.64853,-0.827417 0.64827,-1.596388 -2.5e-4,-0.742617 -0.32149,-1.393784 -0.86569,-1.754759 -0.52243,-0.34653 -0.38197,-0.456194 0.29164,-0.227704 1.2342,0.418645 1.68966,1.977972 0.93426,3.198593 -0.26496,0.428145 -0.81785,0.789556 -1.20786,0.789556 -0.16984,0 -0.12291,-0.09633 0.19938,-0.409298 z m 6.58066,-1.080848 c -0.67828,-0.819581 -1.30926,-1.50775 -1.40219,-1.529265 -0.0932,-0.02157 -0.19222,0.09218 -0.22081,0.253642 -0.033,0.186449 -0.0891,0.04995 -0.15438,-0.375896 -0.0564,-0.367761 -0.15241,-0.699279 -0.21338,-0.736705 -0.21218,-0.130244 -0.10896,-0.306722 0.17939,-0.306722 0.21603,0 0.61122,0.389184 1.54536,1.521852 0.80144,0.97177 1.34266,1.521851 1.49735,1.521851 0.20198,0 0.24224,0.09485 0.24224,0.570695 0,0.313881 -0.0541,0.570694 -0.12018,0.570694 -0.0661,0 -0.67513,-0.670566 -1.3534,-1.490146 z m -25.31064,0.196612 c 0.0367,-0.109461 0.29862,-0.164907 0.7789,-0.164907 1.0009,0 0.98127,0.244535 -0.0234,0.291728 -0.62105,0.02917 -0.79787,-5.07e-4 -0.75548,-0.126821 z m 11.71731,-0.01385 c 0,-0.0913 0.0789,-0.273173 0.17535,-0.404171 0.16856,-0.228959 0.17897,-0.226829 0.26903,0.055 0.062,0.194061 0.0351,0.330051 -0.0796,0.402229 -0.24687,0.155365 -0.3648,0.138211 -0.3648,-0.05306 z m -24.88404,-0.710065 c -0.14186,-0.08923 -0.12456,-0.139046 0.0874,-0.2517 0.36171,-0.192269 0.4087,-0.179254 0.4087,0.11319 0,0.267757 -0.20126,0.323952 -0.49607,0.13851 z m -19.4144,-1.38799 c -0.52203,-0.191704 -0.969,-0.407715 -0.99327,-0.480024 -0.0603,-0.179792 1.86656,-1.345914 2.08587,-1.262327 0.0967,0.03684 0.17576,0.149628 0.17576,0.250631 0,0.289078 0.25683,0.305814 1.14917,0.07489 2.76587,-0.715781 4.93172,-2.111108 5.76277,-3.712617 0.39408,-0.759427 0.56997,-0.741195 1.40966,0.146112 0.40925,0.432448 0.74408,0.89994 0.74408,1.038872 0,0.178426 -0.34477,0.47746 -1.17409,1.018332 -2.03249,1.325564 -3.93727,2.099076 -5.9254,2.406242 -1.63685,0.252893 -1.77047,0.297331 -1.81547,0.603776 -0.0524,0.35709 -0.25009,0.345406 -1.41908,-0.08388 z m 26.39287,-0.327072 c -0.0442,-0.229646 -0.006,-0.368952 0.1147,-0.414836 0.28568,-0.108881 0.33336,0.03736 0.13488,0.41362 l -0.18304,0.34697 z m 37.6528,0.07642 c -0.27734,-0.304384 -0.26663,-0.402182 0.044,-0.402182 0.18728,0 0.25538,0.08455 0.25538,0.317053 0,0.378778 -0.0253,0.385973 -0.29943,0.08513 z m -4.85404,-0.109714 c -0.1526,-0.151571 -0.0824,-0.419289 0.10988,-0.419289 0.10534,0 0.19153,0.08224 0.19153,0.182747 0,0.211873 -0.18224,0.354897 -0.30141,0.236542 z m -39.29338,-0.243685 c -0.1481,-0.177237 -0.13872,-0.198611 0.0695,-0.158526 0.13239,0.02548 0.26464,0.11767 0.29386,0.204859 0.0758,0.226235 -0.16088,0.196054 -0.36341,-0.04633 z m 14.85489,0.04633 c 0.0288,-0.08719 0.22035,-0.174086 0.42562,-0.193103 0.356,-0.03298 0.36178,-0.02567 0.12535,0.158526 -0.29956,0.233392 -0.62342,0.253716 -0.55097,0.03458 z m 3.08965,-0.02767 c -0.2374,-0.178348 -0.23305,-0.186368 0.10329,-0.190231 0.2288,-0.0026 0.35113,0.06224 0.35113,0.186198 0,0.240057 -0.1386,0.241288 -0.45442,0.004 z"
       id="path3789"
       inkscape:connector-curvature="0" />
    <path
       style="fill:#d4625b;stroke-width:0.12725259"
       d="m 323.60954,58.468305 c -1.02403,-0.26656 -2.38112,-0.882012 -2.3769,-1.077945 0.004,-0.194688 0.90862,-0.669906 1.81092,-0.951525 1.88414,-0.588062 4.43215,-0.122262 5.86032,1.071321 0.50639,0.423216 0.68578,0.41008 1.61549,-0.118298 1.04953,-0.596475 1.22529,-0.746543 1.22529,-1.046218 0,-0.278039 -1.08033,-1.22888 -2.01312,-1.771827 -0.30367,-0.176761 -0.5234,-0.349917 -0.48829,-0.384793 0.10962,-0.108881 1.21721,0.598221 2.09331,1.336411 l 0.83884,0.706793 0.7304,-0.788749 c 0.40171,-0.433812 0.96511,-1.23685 1.25198,-1.78453 0.56523,-1.079071 1.07213,-2.919554 1.00959,-3.665666 l -0.039,-0.465818 -4.34132,-0.06595 -4.34131,-0.06595 4.12626,-0.02917 c 2.70961,-0.01915 4.21664,-0.07721 4.38951,-0.169102 0.238,-0.126509 0.25536,-0.216532 0.18092,-0.938132 -0.0453,-0.439008 -0.19484,-1.132206 -0.33235,-1.540441 -0.28208,-0.837431 -0.30485,-0.97725 -0.14296,-0.877874 0.0623,0.03826 0.24252,0.540991 0.4004,1.117168 0.21615,0.788797 0.28715,1.392225 0.28739,2.442626 3.8e-4,1.702706 -0.22055,2.643668 -0.98268,4.185092 -1.2017,2.430463 -3.41161,4.222244 -6.02694,4.886604 -1.30971,0.332699 -3.44911,0.330878 -4.73571,-0.004 z m 4.6869,-0.1539 c 0.7827,-0.237134 0.78763,-0.485905 0.0193,-0.97559 -1.40928,-0.898211 -3.20559,-1.217976 -4.77763,-0.850482 -1.01849,0.238089 -1.88064,0.646252 -1.88064,0.890335 0,0.218717 1.33639,0.784927 2.42602,1.027868 0.99251,0.221286 3.3485,0.169764 4.21293,-0.09213 z m -9.15493,-2.541012 c -0.42782,-0.445949 -1.05922,-1.33816 -1.05922,-1.496745 0,-0.136474 1.81958,-1.165103 2.74524,-1.551914 1.75442,-0.733132 3.28365,-1.092669 5.17127,-1.21582 1.1326,-0.07389 1.21572,-0.09806 1.25382,-0.364486 0.0224,-0.156941 0.0882,-0.285347 0.14623,-0.285347 0.15111,0 1.96316,0.767237 2.08877,0.884399 0.0913,0.08515 -1.70081,1.144736 -1.93612,1.144736 -0.0482,0 -0.14467,-0.128406 -0.21443,-0.285347 -0.11104,-0.249831 -0.20619,-0.280455 -0.76447,-0.246046 -1.58255,0.09754 -3.97249,0.968015 -5.1903,1.890438 -0.34217,0.25918 -0.86415,0.801325 -1.15995,1.204768 -0.2958,0.403442 -0.57103,0.733532 -0.61162,0.733532 -0.0406,0 -0.25174,-0.185476 -0.46922,-0.412168 z m -2.28461,-3.93145 c -0.3235,-1.079453 -0.33057,-3.620283 -0.0133,-4.787491 0.50677,-1.864475 1.63772,-3.644142 3.05765,-4.811563 1.51124,-1.242484 4.31043,-2.293322 6.09757,-2.289078 1.07928,0.0026 3.91972,0.770332 4.13604,1.117967 0.0856,0.137601 -0.44649,0.530102 -1.30323,0.961307 -2.05123,1.032398 -4.51243,0.916149 -6.4506,-0.304679 -0.33259,-0.209493 -0.68411,-0.380897 -0.78115,-0.380897 -0.30032,0 -2.11303,1.420942 -2.11303,1.656355 0,0.296106 0.69855,0.886022 1.72299,1.455042 0.46416,0.257814 0.81794,0.494562 0.78618,0.526108 -0.0968,0.09612 -1.25717,-0.536195 -1.99633,-1.087828 -0.38362,-0.286298 -0.77031,-0.520541 -0.8593,-0.520541 -0.43381,0 -1.78604,2.384699 -2.12143,3.741218 -0.22848,0.924122 -0.33552,1.896475 -0.22782,2.069555 0.0436,0.07012 1.08459,0.180824 2.31324,0.246019 l 2.23391,0.118535 -2.25276,0.01945 c -1.84129,0.0159 -2.26579,0.05317 -2.32408,0.204052 -0.0865,0.223854 0.10287,1.450306 0.34968,2.264844 0.099,0.326841 0.13581,0.594256 0.0817,0.594256 -0.0541,0 -0.20526,-0.356684 -0.33592,-0.792631 z m 10.10492,-9.364766 c 0.76039,-0.139613 2.07566,-0.678245 2.54834,-1.043599 0.23079,-0.178392 0.23634,-0.216599 0.0576,-0.397022 -0.43905,-0.443227 -1.88407,-0.738665 -3.63282,-0.742741 -1.46764,-0.0034 -1.78194,0.03599 -2.71332,0.340199 -1.32678,0.433356 -1.37435,0.635077 -0.28568,1.211402 1.27197,0.67336 2.63465,0.8872 4.02586,0.631761 z m 13.71738,8.952598 c -0.002,-0.03487 -0.005,-0.990788 -0.007,-2.124251 -0.003,-1.873649 0.0167,-2.06084 0.21835,-2.06084 0.20145,0 0.22259,0.194964 0.23036,2.124258 0.008,1.941793 -0.0106,2.124258 -0.21491,2.124251 -0.1229,-4e-6 -0.22501,-0.02854 -0.22691,-0.06342 z m 2.42948,-0.06341 c 0,-0.06975 0.0608,-0.126821 0.13523,-0.126821 0.0744,0 0.0997,0.05707 0.0563,0.126821 -0.0434,0.06975 -0.10425,0.126821 -0.13522,0.126821 -0.031,0 -0.0563,-0.05707 -0.0563,-0.126821 z m 8.12901,-1.992713 c 0.0185,-1.880115 0.0454,-2.128968 0.23035,-2.128968 0.18557,0 0.20948,0.238052 0.21021,2.092546 7.6e-4,1.921904 -0.018,2.095515 -0.23036,2.128967 -0.21606,0.03404 -0.22979,-0.102668 -0.2102,-2.092545 z m 8.06426,0.146167 c 0.029,-1.396419 -0.004,-2.027072 -0.1114,-2.156131 -0.1285,-0.153782 -0.0676,-0.182415 0.38762,-0.182415 0.47088,0 0.52602,0.02842 0.43061,0.221937 -0.0602,0.122065 -0.10942,1.092281 -0.10942,2.156035 v 1.934099 l -0.31922,9.6e-5 -0.31921,9.5e-5 z m 3.15112,-0.182589 v -2.155957 h 0.41498 c 0.40284,0 0.54639,0.158008 0.28777,0.316761 -0.0779,0.0478 -0.11502,0.837793 -0.0958,2.03662 l 0.0314,1.958532 h -0.31922 -0.31921 z m 1.86209,1.114624 -0.78213,-1.041331 0.35382,-0.177061 c 0.1946,-0.09738 0.42564,-0.267456 0.51343,-0.377938 0.24817,-0.312349 0.19046,-0.927769 -0.11755,-1.253409 -0.35174,-0.371872 -0.22803,-0.501856 0.27908,-0.293228 0.47661,0.196083 0.80046,0.762666 0.68871,1.204918 -0.076,0.300739 -0.51899,0.745459 -0.85257,0.8559 -0.15593,0.05162 0.51865,1.20453 0.87819,1.500903 0.10532,0.08681 0.24783,0.262409 0.31669,0.390211 0.10543,0.195653 0.0762,0.232367 -0.18516,0.232367 -0.24001,0 -0.4877,-0.236092 -1.09251,-1.041332 z m 2.41622,0.946216 c 5.1e-4,-0.05231 0.10389,-0.250318 0.22984,-0.440009 l 0.22899,-0.344893 v 0.440009 c 0,0.339165 -0.0527,0.440009 -0.22984,0.440009 -0.1264,0 -0.22945,-0.0428 -0.22899,-0.09512 z m 3.06362,-0.164824 c 0,-0.313925 -0.35671,-1.036027 -0.5748,-1.163598 -0.0864,-0.05055 -0.13637,-0.221763 -0.111,-0.380463 0.0513,-0.320655 -0.45545,-1.429934 -0.65319,-1.429934 -0.0693,0 -0.25263,0.256813 -0.40744,0.570695 -0.35958,0.729065 -0.37638,0.560492 -0.0292,-0.293542 0.14701,-0.361689 0.32021,-0.790504 0.38489,-0.952924 0.0647,-0.16242 0.18347,-0.273499 0.26399,-0.246841 0.10965,0.0363 1.89291,3.91731 1.89291,4.119646 0,0.0203 -0.17237,0.0369 -0.38306,0.0369 -0.30102,0 -0.38305,-0.05566 -0.38305,-0.25994 z m 2.10681,-1.896016 v -2.155957 h 0.41498 c 0.40315,0 0.54635,0.158033 0.28729,0.317053 -0.17073,0.104805 -0.16675,3.431756 0.005,3.749555 0.11821,0.219387 0.0879,0.245305 -0.2873,0.245305 h -0.41947 z m 4.97974,-0.0054 v -2.161286 l 0.29233,0.03707 c 0.29029,0.03681 0.29251,0.05184 0.31921,2.161399 l 0.0269,2.12433 -0.31921,-7.9e-5 -0.31922,-7.8e-5 v -2.161321 z m 2.2345,1.915163 c 0,-0.135386 0.0575,-0.281428 0.12769,-0.324537 0.0702,-0.04311 0.12769,-0.02261 0.12769,0.04555 0,0.06816 0.0349,0.214205 0.0775,0.324537 0.0509,0.131638 0.007,0.200604 -0.12769,0.200604 -0.11798,0 -0.20519,-0.104615 -0.20519,-0.246158 z m 5.39356,-0.0068 c -1.4143,-0.85647 -1.27928,-3.096295 0.23348,-3.87328 0.55162,-0.283317 0.59047,-0.225312 0.1517,0.226492 -0.49319,0.507851 -0.67131,0.956963 -0.67131,1.692706 0,0.682723 0.27732,1.385824 0.73294,1.85828 0.40437,0.419314 0.17029,0.469503 -0.44681,0.0958 z m 2.26078,0.07086 c 0.0943,-0.112898 0.14038,-0.534571 0.12115,-1.109683 -0.0307,-0.919867 -0.0282,-0.927926 0.31039,-0.967721 l 0.34138,-0.04013 v 0.950522 c 0,1.019997 -0.16178,1.349103 -0.66318,1.349103 -0.21311,0 -0.23355,-0.03392 -0.10974,-0.182091 z m -40.82023,-0.198372 c -0.4128,-1.032872 -1.30925,-3.611955 -1.30925,-3.766682 0,-0.100851 0.0874,-0.164914 0.19423,-0.142361 0.12177,0.02571 0.38841,0.606899 0.71474,1.557929 0.28628,0.834309 0.60597,1.578993 0.71042,1.654853 0.16727,0.12148 0.16766,0.190121 0.003,0.57562 l -0.18668,0.437693 z m 2.15944,-0.02407 c -0.0583,-0.161138 -0.23914,-0.66393 -0.40184,-1.117315 -0.16269,-0.453385 -0.37343,-0.887697 -0.46831,-0.965138 -0.0949,-0.07744 -0.17251,-0.293284 -0.17251,-0.479652 0,-0.186367 -0.0843,-0.539266 -0.18736,-0.78422 -0.16468,-0.391477 -0.16468,-0.454012 0,-0.516779 0.31822,-0.121283 0.53041,0.04318 0.54163,0.419795 0.0134,0.450532 0.74564,2.442184 1.00082,2.722248 0.12354,0.135587 0.16023,0.324037 0.10535,0.541188 -0.11523,0.456023 -0.29052,0.531493 -0.41778,0.179873 z m 26.27204,-0.131583 c 0.51601,-0.501073 0.64853,-0.827417 0.64827,-1.596387 -2.5e-4,-0.742617 -0.32149,-1.393784 -0.86569,-1.754759 -0.52243,-0.346531 -0.38197,-0.456195 0.29164,-0.227704 1.2342,0.418645 1.68966,1.977971 0.93426,3.198592 -0.26496,0.428146 -0.81785,0.789557 -1.20786,0.789557 -0.16984,0 -0.12291,-0.09633 0.19938,-0.409299 z m 6.58066,-1.080847 c -0.67828,-0.819581 -1.30926,-1.50775 -1.40219,-1.529265 -0.0932,-0.02157 -0.19222,0.09218 -0.22081,0.253642 -0.033,0.186449 -0.0891,0.04995 -0.15438,-0.375896 -0.0564,-0.367761 -0.15241,-0.699279 -0.21338,-0.736705 -0.21218,-0.130244 -0.10896,-0.306722 0.17939,-0.306722 0.21603,0 0.61122,0.389184 1.54536,1.521852 0.80144,0.97177 1.34266,1.521851 1.49735,1.521851 0.20198,0 0.24224,0.09485 0.24224,0.570695 0,0.313881 -0.0541,0.570694 -0.12018,0.570694 -0.0661,0 -0.67513,-0.670566 -1.3534,-1.490146 z m -27.14754,0.922163 c 0.72622,-0.821516 0.70011,-2.205575 -0.0558,-2.956336 -0.51176,-0.508287 -0.53495,-0.581015 -0.14816,-0.464511 0.73759,0.22216 1.24494,1.0208 1.24494,1.959695 0,0.736861 -0.22658,1.254372 -0.71694,1.637474 -0.55976,0.437321 -0.7669,0.324617 -0.32407,-0.176322 z m 1.93481,-0.700227 c 0,-0.06975 0.31602,-0.126821 0.70227,-0.126821 0.38625,0 0.70227,0.05707 0.70227,0.126821 0,0.06975 -0.31602,0.126821 -0.70227,0.126821 -0.38625,0 -0.70227,-0.05707 -0.70227,-0.126821 z m 11.6194,-0.03917 c 0,-0.0913 0.0789,-0.273173 0.17535,-0.404171 0.16856,-0.228959 0.17897,-0.226829 0.26903,0.055 0.062,0.194061 0.0351,0.330051 -0.0796,0.402229 -0.24687,0.155365 -0.3648,0.138211 -0.3648,-0.05306 z m -24.69659,-0.704733 c -0.055,-0.0884 -0.0655,-0.194967 -0.0234,-0.236827 0.11427,-0.1135 0.23887,0.05343 0.17715,0.237338 -0.0433,0.128872 -0.0733,0.128772 -0.15377,-5.07e-4 z m -19.60185,-1.393322 c -0.52203,-0.191704 -0.969,-0.407715 -0.99327,-0.480024 -0.0603,-0.179792 1.86656,-1.345914 2.08587,-1.262327 0.0967,0.03684 0.17576,0.149628 0.17576,0.250631 0,0.289078 0.25683,0.305814 1.14917,0.07489 2.76587,-0.715781 4.93172,-2.111108 5.76277,-3.712617 0.39408,-0.759427 0.56997,-0.741195 1.40966,0.146112 0.40925,0.432448 0.74408,0.89994 0.74408,1.038872 0,0.178426 -0.34477,0.47746 -1.17409,1.018332 -2.03249,1.325564 -3.93727,2.099076 -5.9254,2.406242 -1.63685,0.252893 -1.77047,0.297331 -1.81547,0.603776 -0.0524,0.35709 -0.25009,0.345406 -1.41908,-0.08388 z m 64.04567,-0.250653 c -0.27734,-0.304384 -0.26663,-0.402182 0.044,-0.402182 0.18728,0 0.25538,0.08455 0.25538,0.317053 0,0.378778 -0.0253,0.385973 -0.29943,0.08513 z m -4.85404,-0.109714 c -0.1526,-0.151571 -0.0824,-0.419289 0.10988,-0.419289 0.10534,0 0.19153,0.08224 0.19153,0.182747 0,0.211873 -0.18224,0.354897 -0.30141,0.236542 z m -32.70535,-0.165647 c -0.0434,-0.06975 -0.0181,-0.126821 0.0563,-0.126821 0.0744,0 0.13522,0.05707 0.13522,0.126821 0,0.06975 -0.0253,0.126821 -0.0563,0.126821 -0.031,0 -0.0918,-0.05707 -0.13522,-0.126821 z m 8.26686,-0.03171 c 0.0288,-0.08719 0.22035,-0.174086 0.42562,-0.193103 0.356,-0.03298 0.36178,-0.02567 0.12535,0.158526 -0.29956,0.233392 -0.62342,0.253716 -0.55097,0.03458 z m 3.08965,-0.02767 c -0.2374,-0.178348 -0.23305,-0.186368 0.10329,-0.190231 0.2288,-0.0026 0.35113,0.06224 0.35113,0.186198 0,0.240057 -0.1386,0.241288 -0.45442,0.004 z"
       id="path3787"
       inkscape:connector-curvature="0" />
    <path
       style="fill:#4b608f;stroke-width:0.12725259"
       d="m 323.60954,58.468305 c -1.02403,-0.26656 -2.38112,-0.882012 -2.3769,-1.077945 0.004,-0.194688 0.90862,-0.669906 1.81092,-0.951525 1.88414,-0.588062 4.43215,-0.122262 5.86032,1.071321 0.50639,0.423216 0.68578,0.41008 1.61549,-0.118298 1.04953,-0.596475 1.22529,-0.746543 1.22529,-1.046218 0,-0.278039 -1.08033,-1.22888 -2.01312,-1.771827 -0.30367,-0.176761 -0.5234,-0.349917 -0.48829,-0.384793 0.10962,-0.108881 1.21721,0.598221 2.09331,1.336411 l 0.83884,0.706793 0.7304,-0.788749 c 0.40171,-0.433812 0.96511,-1.23685 1.25198,-1.78453 0.56523,-1.079071 1.07213,-2.919554 1.00959,-3.665666 l -0.039,-0.465818 -4.34132,-0.06595 -4.34131,-0.06595 4.12626,-0.02917 c 2.70961,-0.01915 4.21664,-0.07721 4.38951,-0.169102 0.238,-0.126509 0.25536,-0.216532 0.18092,-0.938132 -0.0453,-0.439008 -0.19484,-1.132206 -0.33235,-1.540441 -0.28208,-0.837431 -0.30485,-0.97725 -0.14296,-0.877874 0.0623,0.03826 0.24252,0.540991 0.4004,1.117168 0.21615,0.788797 0.28715,1.392225 0.28739,2.442626 3.8e-4,1.702706 -0.22055,2.643668 -0.98268,4.185092 -1.2017,2.430463 -3.41161,4.222244 -6.02694,4.886604 -1.30971,0.332699 -3.44911,0.330878 -4.73571,-0.004 z m 4.6869,-0.1539 c 0.7827,-0.237134 0.78763,-0.485905 0.0193,-0.97559 -1.40928,-0.898211 -3.20559,-1.217976 -4.77763,-0.850482 -1.01849,0.238089 -1.88064,0.646252 -1.88064,0.890335 0,0.218717 1.33639,0.784927 2.42602,1.027868 0.99251,0.221286 3.3485,0.169764 4.21293,-0.09213 z m -9.15493,-2.541012 c -0.42782,-0.445949 -1.05922,-1.33816 -1.05922,-1.496745 0,-0.136474 1.81958,-1.165103 2.74524,-1.551914 1.75442,-0.733132 3.28365,-1.092669 5.17127,-1.21582 1.1326,-0.07389 1.21572,-0.09806 1.25382,-0.364486 0.0224,-0.156941 0.0882,-0.285347 0.14623,-0.285347 0.15111,0 1.96316,0.767237 2.08877,0.884399 0.0913,0.08515 -1.70081,1.144736 -1.93612,1.144736 -0.0482,0 -0.14467,-0.128406 -0.21443,-0.285347 -0.11104,-0.249831 -0.20619,-0.280455 -0.76447,-0.246046 -1.58255,0.09754 -3.97249,0.968015 -5.1903,1.890438 -0.34217,0.25918 -0.86415,0.801325 -1.15995,1.204768 -0.2958,0.403442 -0.57103,0.733532 -0.61162,0.733532 -0.0406,0 -0.25174,-0.185476 -0.46922,-0.412168 z m -2.28461,-3.93145 c -0.3235,-1.079453 -0.33057,-3.620283 -0.0133,-4.787491 0.50677,-1.864475 1.63772,-3.644142 3.05765,-4.811563 1.51124,-1.242484 4.31043,-2.293322 6.09757,-2.289078 1.07928,0.0026 3.91972,0.770332 4.13604,1.117967 0.0856,0.137601 -0.44649,0.530102 -1.30323,0.961307 -2.05123,1.032398 -4.51243,0.916149 -6.4506,-0.304679 -0.33259,-0.209493 -0.68411,-0.380897 -0.78115,-0.380897 -0.30032,0 -2.11303,1.420942 -2.11303,1.656355 0,0.296106 0.69855,0.886022 1.72299,1.455042 0.46416,0.257814 0.81794,0.494562 0.78618,0.526108 -0.0968,0.09612 -1.25717,-0.536195 -1.99633,-1.087828 -0.38362,-0.286298 -0.77031,-0.520541 -0.8593,-0.520541 -0.43381,0 -1.78604,2.384699 -2.12143,3.741218 -0.22848,0.924122 -0.33552,1.896475 -0.22782,2.069555 0.0436,0.07012 1.08459,0.180824 2.31324,0.246019 l 2.23391,0.118535 -2.25276,0.01945 c -1.84129,0.0159 -2.26579,0.05317 -2.32408,0.204052 -0.0865,0.223854 0.10287,1.450306 0.34968,2.264844 0.099,0.326841 0.13581,0.594256 0.0817,0.594256 -0.0541,0 -0.20526,-0.356684 -0.33592,-0.792631 z m 10.10492,-9.364766 c 0.76039,-0.139613 2.07566,-0.678245 2.54834,-1.043599 0.23079,-0.178392 0.23634,-0.216599 0.0576,-0.397022 -0.43905,-0.443227 -1.88407,-0.738665 -3.63282,-0.742741 -1.46764,-0.0034 -1.78194,0.03599 -2.71332,0.340199 -1.32678,0.433356 -1.37435,0.635077 -0.28568,1.211402 1.27197,0.67336 2.63465,0.8872 4.02586,0.631761 z m 13.71738,8.952598 c -0.002,-0.03487 -0.005,-0.990788 -0.007,-2.124251 -0.003,-1.873649 0.0167,-2.06084 0.21835,-2.06084 0.20145,0 0.22259,0.194964 0.23036,2.124258 0.008,1.941793 -0.0106,2.124258 -0.21491,2.124251 -0.1229,-4e-6 -0.22501,-0.02854 -0.22691,-0.06342 z m 2.42948,-0.06341 c 0,-0.06975 0.0608,-0.126821 0.13523,-0.126821 0.0744,0 0.0997,0.05707 0.0563,0.126821 -0.0434,0.06975 -0.10425,0.126821 -0.13522,0.126821 -0.031,0 -0.0563,-0.05707 -0.0563,-0.126821 z m 8.12901,-1.992713 c 0.0185,-1.880115 0.0454,-2.128968 0.23035,-2.128968 0.18557,0 0.20948,0.238052 0.21021,2.092546 7.6e-4,1.921904 -0.018,2.095515 -0.23036,2.128967 -0.21606,0.03404 -0.22979,-0.102668 -0.2102,-2.092545 z m -5.28753,1.739071 c -0.4128,-1.032872 -1.30925,-3.611955 -1.30925,-3.766682 0,-0.100851 0.0874,-0.164914 0.19423,-0.142361 0.12177,0.02571 0.38841,0.606899 0.71474,1.557929 0.28628,0.834309 0.60597,1.578993 0.71042,1.654853 0.16727,0.12148 0.16766,0.190121 0.003,0.57562 l -0.18668,0.437693 z m 2.15944,-0.02407 c -0.0583,-0.161138 -0.23914,-0.66393 -0.40184,-1.117315 -0.16269,-0.453385 -0.37343,-0.887697 -0.46831,-0.965138 -0.0949,-0.07744 -0.17251,-0.293284 -0.17251,-0.479652 0,-0.186367 -0.0843,-0.539266 -0.18736,-0.78422 -0.16468,-0.391477 -0.16468,-0.454012 0,-0.516779 0.31822,-0.121283 0.53041,0.04318 0.54163,0.419795 0.0134,0.450532 0.74564,2.442184 1.00082,2.722248 0.12354,0.135587 0.16023,0.324037 0.10535,0.541188 -0.11523,0.456023 -0.29052,0.531493 -0.41778,0.179873 z m 11.34286,-1.751419 c 0,-1.53881 0.0386,-2.029114 0.1596,-2.029045 0.12103,6.9e-5 0.15961,0.490507 0.15961,2.029194 0,1.538768 -0.0386,2.02909 -0.15961,2.029045 -0.12103,-4.5e-5 -0.1596,-0.490465 -0.1596,-2.029194 z m 3.15344,0.03396 c 0.0159,-1.262799 0.0745,-2.01154 0.15961,-2.039716 0.0855,-0.02832 0.13739,0.293817 0.14253,0.885503 0.004,0.511511 0.0188,1.429397 0.0319,2.039747 0.0196,0.912418 -0.0102,1.109722 -0.16768,1.109696 -0.16319,-2.7e-5 -0.18781,-0.295179 -0.16638,-1.99523 z m 1.90418,1.118632 c -0.34342,-0.480481 -0.62066,-0.920681 -0.61609,-0.978222 0.0138,-0.173155 0.28284,-0.20813 0.28284,-0.03676 0,0.08731 0.2864,0.548622 0.63645,1.025136 0.35004,0.476514 0.56551,0.865728 0.47882,0.86492 -0.0867,-8.11e-4 -0.43861,-0.394591 -0.78202,-0.875072 z m 5.35961,0.445534 c -0.0448,-0.237054 -0.19481,-0.574205 -0.33342,-0.749224 -0.13861,-0.175019 -0.25328,-0.423353 -0.25482,-0.551854 -0.003,-0.285736 -0.45598,-1.298028 -0.70003,-1.565875 -0.17768,-0.195002 -0.0452,-0.657755 0.13666,-0.477178 0.10343,0.102733 1.58766,3.542393 1.58766,3.679365 0,0.05268 -0.0798,0.09577 -0.17732,0.09577 -0.10055,0 -0.21256,-0.186605 -0.25873,-0.431008 z m 2.19783,-1.597952 c 0.0325,-1.737407 0.0667,-2.029311 0.23711,-2.029311 0.12908,0 0.17184,0.07054 0.12159,0.200604 -0.0426,0.110332 -0.0775,1.023443 -0.0775,2.029135 0,1.378185 -0.0393,1.828575 -0.15961,1.828707 -0.12262,1.4e-4 -0.15079,-0.470024 -0.12158,-2.029135 z m 4.94172,-3.25e-4 c 0,-1.538768 0.0386,-2.02909 0.15961,-2.029045 0.12103,4.5e-5 0.1596,0.490465 0.1596,2.029195 0,1.538809 -0.0386,2.029113 -0.1596,2.029044 -0.12103,-6.9e-5 -0.15961,-0.490507 -0.15961,-2.029194 z m -23.19448,1.461302 c 0.72622,-0.821516 0.70011,-2.205575 -0.0558,-2.956336 -0.51176,-0.508287 -0.53495,-0.581015 -0.14816,-0.464511 0.73759,0.22216 1.24494,1.0208 1.24494,1.959695 0,0.736861 -0.22658,1.254372 -0.71694,1.637474 -0.55976,0.437321 -0.7669,0.324617 -0.32407,-0.176322 z m 33.21781,-0.499427 c 0,-0.782449 0.0367,-0.961725 0.19712,-0.961725 0.16287,0 0.1906,0.158022 0.15961,0.909307 -0.0242,0.58659 -0.0942,0.927911 -0.19712,0.961725 -0.1183,0.03885 -0.15961,-0.196517 -0.15961,-0.909307 z m -5.74586,-0.26421 c -0.5267,-0.627764 -1.19584,-1.377259 -1.48696,-1.665544 -0.52951,-0.524345 -0.81819,-1.061107 -0.57069,-1.061107 0.0716,0 0.68973,0.670566 1.37358,1.490146 1.19392,1.430896 1.38258,1.630233 1.62231,1.714166 0.0596,0.02085 0.0883,0.17872 0.0638,0.350819 -0.0396,0.278566 -0.14954,0.187638 -1.00208,-0.82848 z m 2.87986,0.75637 c -0.65735,-0.704489 -0.68109,-1.954785 -0.0517,-2.722095 0.20561,-0.250661 0.23994,-0.263939 0.16393,-0.06341 -0.0529,0.139503 -0.11928,0.653127 -0.14756,1.141388 -0.0415,0.715984 -9e-4,0.984223 0.21001,1.38638 0.32355,0.617126 0.25502,0.718248 -0.17468,0.257737 z m -9.25038,-0.275902 c 0.35231,-0.686361 0.32125,-1.731805 -0.0717,-2.414488 -0.35584,-0.618143 -0.26746,-0.696511 0.21455,-0.190231 0.68105,0.715356 0.72462,2.09671 0.0874,2.770424 -0.41678,0.44064 -0.5078,0.375121 -0.23019,-0.165705 z m -19.16662,-0.417058 c 0,-0.06975 0.31602,-0.126821 0.70227,-0.126821 0.38625,0 0.70227,0.05707 0.70227,0.126821 0,0.06975 -0.31602,0.126821 -0.70227,0.126821 -0.38625,0 -0.70227,-0.05707 -0.70227,-0.126821 z m -13.07719,-0.743904 c -0.055,-0.0884 -0.0655,-0.194967 -0.0234,-0.236827 0.11427,-0.1135 0.23887,0.05343 0.17715,0.237338 -0.0433,0.128872 -0.0733,0.128772 -0.15377,-5.07e-4 z m 21.8875,-0.329798 c 0,-0.02815 0.0571,-0.200293 0.12685,-0.382549 0.093,-0.243003 0.0766,-0.450734 -0.0614,-0.778954 -0.21763,-0.517347 -0.0311,-0.537075 0.34521,-0.0365 0.19573,0.260388 0.21142,0.378256 0.0946,0.711056 -0.077,0.21941 -0.22219,0.430247 -0.32262,0.468526 -0.10043,0.03828 -0.18261,0.04657 -0.18261,0.01842 z m -41.33824,-1.166245 c -0.50915,-0.174685 -0.92573,-0.364499 -0.92573,-0.42181 0,-0.05731 0.27293,-0.261741 0.60651,-0.454288 0.33358,-0.192547 0.73891,-0.43484 0.90073,-0.538428 0.27173,-0.173944 0.29953,-0.168164 0.36372,0.07562 0.10508,0.399116 0.32946,0.421271 1.4134,0.139553 2.73284,-0.710265 4.73938,-2.004759 5.77565,-3.726084 0.16797,-0.279006 0.31923,-0.526175 0.33613,-0.549264 0.13823,-0.18881 1.58483,1.30714 1.58483,1.638893 0,0.209167 -1.49526,1.214226 -2.77041,1.862169 -1.52831,0.776576 -3.01372,1.252033 -4.68924,1.500948 -1.4405,0.214001 -1.47834,0.228444 -1.47834,0.564167 0,0.298778 0.0265,0.300951 -1.11725,-0.09148 z m 26.33517,-0.423293 c -0.0434,-0.06975 -0.0181,-0.126821 0.0563,-0.126821 0.0744,0 0.13522,0.05707 0.13522,0.126821 0,0.06975 -0.0253,0.126821 -0.0563,0.126821 -0.031,0 -0.0918,-0.05707 -0.13522,-0.126821 z"
       id="path3785"
       inkscape:connector-curvature="0" />
    <path
       style="fill:#d22c23;stroke-width:0.12725259"
       d="m 319.03901,55.519751 c -0.25725,-0.296444 -0.55041,-0.695759 -0.65146,-0.887365 -0.18195,-0.344983 -0.17718,-0.352533 0.48969,-0.775286 2.07482,-1.315296 5.05269,-2.237093 7.22694,-2.237093 1.0666,0 1.29916,-0.07207 1.29916,-0.402578 0,-0.285361 0.11629,-0.264015 1.23235,0.22622 0.38323,0.168333 0.66043,0.363563 0.61649,0.434181 -0.12871,0.20685 -1.592,0.899437 -1.72623,0.81704 -0.0674,-0.0414 -0.12261,-0.154133 -0.12261,-0.250527 0,-0.296341 -0.20372,-0.327302 -1.17284,-0.178249 -2.69944,0.415177 -5.09407,1.650875 -6.12509,3.160719 -0.23488,0.343962 -0.46567,0.626858 -0.51287,0.628656 -0.0472,0.0018 -0.29629,-0.239274 -0.55353,-0.535718 z m 21.77133,-6.190006 c 0,-1.325452 0.0446,-2.009251 0.12769,-1.95824 0.0762,0.04678 0.12768,0.867927 0.12768,2.03662 0,1.220946 -0.0481,1.95824 -0.12768,1.95824 -0.0798,0 -0.12769,-0.763421 -0.12769,-2.03662 z m 10.47023,0.0075 c 0,-1.26821 0.0479,-2.029136 0.12769,-2.029136 0.0798,0 0.12768,0.760926 0.12768,2.029136 0,1.268209 -0.0479,2.029135 -0.12768,2.029135 -0.0798,0 -0.12769,-0.760926 -0.12769,-2.029135 z m 8.17189,0 c 0,-1.53881 0.0386,-2.029114 0.1596,-2.029045 0.12103,6.9e-5 0.15961,0.490507 0.15961,2.029194 0,1.538768 -0.0386,2.02909 -0.15961,2.029045 -0.12103,-4.5e-5 -0.1596,-0.490465 -0.1596,-2.029194 z m 3.15344,0.03396 c 0.0159,-1.262799 0.0745,-2.01154 0.15961,-2.039716 0.0855,-0.02832 0.13739,0.293817 0.14253,0.885503 0.004,0.511511 0.0188,1.429397 0.0319,2.039747 0.0196,0.912418 -0.0102,1.109722 -0.16768,1.109696 -0.16319,-2.7e-5 -0.18781,-0.295179 -0.16638,-1.99523 z m 1.90418,1.118632 c -0.34342,-0.480481 -0.62066,-0.920681 -0.61609,-0.978222 0.0138,-0.173155 0.28284,-0.20813 0.28284,-0.03676 0,0.08731 0.2864,0.548622 0.63645,1.025136 0.35004,0.476514 0.56551,0.865728 0.47882,0.86492 -0.0867,-8.11e-4 -0.43861,-0.394591 -0.78202,-0.875072 z m 5.35961,0.445534 c -0.0448,-0.237054 -0.19481,-0.574205 -0.33342,-0.749224 -0.13861,-0.175019 -0.25328,-0.423353 -0.25482,-0.551854 -0.003,-0.285736 -0.45598,-1.298028 -0.70003,-1.565875 -0.17768,-0.195002 -0.0452,-0.657755 0.13666,-0.477178 0.10343,0.102733 1.58766,3.542393 1.58766,3.679365 0,0.05268 -0.0798,0.09577 -0.17732,0.09577 -0.10055,0 -0.21256,-0.186605 -0.25873,-0.431008 z m 2.19783,-1.597952 c 0.0325,-1.737407 0.0667,-2.029311 0.23711,-2.029311 0.12908,0 0.17184,0.07054 0.12159,0.200604 -0.0426,0.110332 -0.0775,1.023443 -0.0775,2.029135 0,1.378185 -0.0393,1.828575 -0.15961,1.828707 -0.12262,1.4e-4 -0.15079,-0.470024 -0.12158,-2.029135 z m 4.94172,-3.25e-4 c 0,-1.538768 0.0386,-2.02909 0.15961,-2.029045 0.12103,4.5e-5 0.1596,0.490465 0.1596,2.029195 0,1.538809 -0.0386,2.029113 -0.1596,2.029044 -0.12103,-6.9e-5 -0.15961,-0.490507 -0.15961,-2.029194 z m 10.02333,0.961875 c 0,-0.782449 0.0367,-0.961725 0.19712,-0.961725 0.16287,0 0.1906,0.158022 0.15961,0.909307 -0.0242,0.58659 -0.0942,0.927911 -0.19712,0.961725 -0.1183,0.03885 -0.15961,-0.196517 -0.15961,-0.909307 z m -41.08643,0.560126 c -0.6858,-1.854065 -1.19881,-3.445317 -1.1321,-3.511572 0.1185,-0.117701 0.11916,-0.116207 0.65232,1.482437 0.26752,0.802142 0.56988,1.554209 0.67192,1.67126 0.13573,0.155707 0.15057,0.274824 0.0553,0.443873 -0.11981,0.212632 -0.13954,0.205775 -0.24746,-0.086 z m 2.04714,-0.393371 c -0.14044,-0.376534 -0.2982,-0.827281 -0.35058,-1.001659 -0.0524,-0.174379 -0.16684,-0.402657 -0.25437,-0.507284 -0.0875,-0.104628 -0.19342,-0.389975 -0.2353,-0.634105 -0.0419,-0.24413 -0.11382,-0.57228 -0.15985,-0.729221 -0.0524,-0.17849 -0.0288,-0.285347 0.0629,-0.285347 0.0806,0 0.16541,0.07134 0.18842,0.158526 0.25681,0.973124 0.79225,2.528215 0.98566,2.862674 0.16277,0.281475 0.20628,0.487712 0.13107,0.621196 -0.0865,0.153541 -0.17173,0.04125 -0.36793,-0.48478 z m 33.29343,-0.430965 c -0.5267,-0.627764 -1.19584,-1.377259 -1.48696,-1.665544 -0.52951,-0.524345 -0.81819,-1.061107 -0.57069,-1.061107 0.0716,0 0.68973,0.670566 1.37358,1.490146 1.19392,1.430896 1.38258,1.630233 1.62231,1.714166 0.0596,0.02085 0.0883,0.17872 0.0638,0.350819 -0.0396,0.278566 -0.14954,0.187638 -1.00208,-0.82848 z m 2.87986,0.75637 c -0.65735,-0.704489 -0.68109,-1.954785 -0.0517,-2.722095 0.20561,-0.250661 0.23994,-0.263939 0.16393,-0.06341 -0.0529,0.139503 -0.11928,0.653127 -0.14756,1.141388 -0.0415,0.715984 -9e-4,0.984223 0.21001,1.38638 0.32355,0.617126 0.25502,0.718248 -0.17468,0.257737 z m -30.2046,0.149021 c 0,-0.04949 0.10055,-0.242402 0.22345,-0.428697 0.33413,-0.506487 0.30279,-1.737605 -0.0597,-2.347303 -0.15553,-0.261568 -0.23728,-0.475579 -0.18166,-0.475579 0.19825,0 0.62745,0.578519 0.77988,1.051211 0.20147,0.624762 -0.0181,1.596249 -0.45226,2.001401 -0.17032,0.15892 -0.30967,0.248456 -0.30967,0.198967 z m 20.95422,-0.424923 c 0.35231,-0.686361 0.32125,-1.731805 -0.0717,-2.414488 -0.35584,-0.618143 -0.26746,-0.696511 0.21455,-0.190231 0.68105,0.715356 0.72462,2.09671 0.0874,2.770424 -0.41678,0.44064 -0.5078,0.375121 -0.23019,-0.165705 z m -10.35631,-1.49076 c 0,-0.02815 0.0571,-0.200293 0.12685,-0.382549 0.093,-0.243003 0.0766,-0.450734 -0.0614,-0.778954 -0.21763,-0.517347 -0.0311,-0.537075 0.34521,-0.0365 0.19573,0.260388 0.21142,0.378256 0.0946,0.711056 -0.077,0.21941 -0.22219,0.430247 -0.32262,0.468526 -0.10043,0.03828 -0.18261,0.04657 -0.18261,0.01842 z m -41.33824,-1.166245 c -0.50915,-0.174685 -0.92573,-0.364499 -0.92573,-0.42181 0,-0.05731 0.27293,-0.261741 0.60651,-0.454288 0.33358,-0.192547 0.73891,-0.43484 0.90073,-0.538428 0.27173,-0.173944 0.29953,-0.168164 0.36372,0.07562 0.10508,0.399116 0.32946,0.421271 1.4134,0.139553 2.73284,-0.710265 4.73938,-2.004759 5.77565,-3.726084 0.16797,-0.279006 0.31923,-0.526175 0.33613,-0.549264 0.13823,-0.18881 1.58483,1.30714 1.58483,1.638893 0,0.209167 -1.49526,1.214226 -2.77041,1.862169 -1.52831,0.776576 -3.01372,1.252033 -4.68924,1.500948 -1.4405,0.214001 -1.47834,0.228444 -1.47834,0.564167 0,0.298778 0.0265,0.300951 -1.11725,-0.09148 z m -4.11787,-4.735205 c 0,-0.06975 0.0575,-0.126821 0.12769,-0.126821 0.0702,0 0.12768,0.05707 0.12768,0.126821 0,0.06975 -0.0575,0.126821 -0.12768,0.126821 -0.0702,0 -0.12769,-0.05707 -0.12769,-0.126821 z m 2.6814,-1.902315 c 0,-0.06975 0.0608,-0.12682 0.13522,-0.12682 0.0744,0 0.0997,0.05707 0.0563,0.12682 -0.0434,0.06975 -0.10425,0.126821 -0.13522,0.126821 -0.031,0 -0.0563,-0.05707 -0.0563,-0.126821 z m 3.80094,-1.233299 c 0.22949,-0.02823 0.57425,-0.02764 0.76611,0.0013 0.19187,0.02894 0.004,0.05203 -0.41726,0.05132 -0.42137,-7.12e-4 -0.57835,-0.02439 -0.34885,-0.05261 z"
       id="path3783"
       inkscape:connector-curvature="0" />
    <path
       style="fill:#27427c;stroke-width:0.12725259"
       d="m 319.03901,55.519751 c -0.25725,-0.296444 -0.55041,-0.695759 -0.65146,-0.887365 -0.18195,-0.344983 -0.17718,-0.352533 0.48969,-0.775286 2.07482,-1.315296 5.05269,-2.237093 7.22694,-2.237093 1.0666,0 1.29916,-0.07207 1.29916,-0.402578 0,-0.285361 0.11629,-0.264015 1.23235,0.22622 0.38323,0.168333 0.66043,0.363563 0.61649,0.434181 -0.12871,0.20685 -1.592,0.899437 -1.72623,0.81704 -0.0674,-0.0414 -0.12261,-0.154133 -0.12261,-0.250527 0,-0.296341 -0.20372,-0.327302 -1.17284,-0.178249 -2.69944,0.415177 -5.09407,1.650875 -6.12509,3.160719 -0.23488,0.343962 -0.46567,0.626858 -0.51287,0.628656 -0.0472,0.0018 -0.29629,-0.239274 -0.55353,-0.535718 z m 21.77133,-6.190006 c 0,-1.325452 0.0446,-2.009251 0.12769,-1.95824 0.0762,0.04678 0.12768,0.867927 0.12768,2.03662 0,1.220946 -0.0481,1.95824 -0.12768,1.95824 -0.0798,0 -0.12769,-0.763421 -0.12769,-2.03662 z m 10.47023,0.0075 c 0,-1.26821 0.0479,-2.029136 0.12769,-2.029136 0.0798,0 0.12768,0.760926 0.12768,2.029136 0,1.268209 -0.0479,2.029135 -0.12768,2.029135 -0.0798,0 -0.12769,-0.760926 -0.12769,-2.029135 z m -5.33443,1.521851 c -0.6858,-1.854065 -1.19881,-3.445317 -1.1321,-3.511572 0.1185,-0.117701 0.11916,-0.116207 0.65232,1.482437 0.26752,0.802142 0.56988,1.554209 0.67192,1.67126 0.13573,0.155707 0.15057,0.274824 0.0553,0.443873 -0.11981,0.212632 -0.13954,0.205775 -0.24746,-0.086 z m 2.04714,-0.393371 c -0.14044,-0.376534 -0.2982,-0.827281 -0.35058,-1.001659 -0.0524,-0.174379 -0.16684,-0.402657 -0.25437,-0.507284 -0.0875,-0.104628 -0.19342,-0.389975 -0.2353,-0.634105 -0.0419,-0.24413 -0.11382,-0.57228 -0.15985,-0.729221 -0.0524,-0.17849 -0.0288,-0.285347 0.0629,-0.285347 0.0806,0 0.16541,0.07134 0.18842,0.158526 0.25681,0.973124 0.79225,2.528215 0.98566,2.862674 0.16277,0.281475 0.20628,0.487712 0.13107,0.621196 -0.0865,0.153541 -0.17173,0.04125 -0.36793,-0.48478 z m 5.96869,0.474426 c 0,-0.04949 0.10055,-0.242402 0.22345,-0.428697 0.33413,-0.506487 0.30279,-1.737605 -0.0597,-2.347303 -0.15553,-0.261568 -0.23728,-0.475579 -0.18166,-0.475579 0.19825,0 0.62745,0.578519 0.77988,1.051211 0.20147,0.624762 -0.0181,1.596249 -0.45226,2.001401 -0.17032,0.15892 -0.30967,0.248456 -0.30967,0.198967 z m -34.8582,-7.817133 c 0,-0.06975 0.0575,-0.126821 0.12769,-0.126821 0.0702,0 0.12768,0.05707 0.12768,0.126821 0,0.06975 -0.0575,0.126821 -0.12768,0.126821 -0.0702,0 -0.12769,-0.05707 -0.12769,-0.126821 z m 2.6814,-1.902315 c 0,-0.06975 0.0608,-0.12682 0.13522,-0.12682 0.0744,0 0.0997,0.05707 0.0563,0.12682 -0.0434,0.06975 -0.10425,0.126821 -0.13522,0.126821 -0.031,0 -0.0563,-0.05707 -0.0563,-0.126821 z m 3.80094,-1.233299 c 0.22949,-0.02823 0.57425,-0.02764 0.76611,0.0013 0.19187,0.02894 0.004,0.05203 -0.41726,0.05132 -0.42137,-7.12e-4 -0.57835,-0.02439 -0.34885,-0.05261 z"
       id="path3781"
       inkscape:connector-curvature="0" />
  </g>
</svg>
